%TF.GenerationSoftware,Altium Limited,Altium Designer,25.8.1 (18)*%
G04 Layer_Color=65535*
%FSLAX45Y45*%
%MOMM*%
%TF.SameCoordinates,EFCC0B50-9DCE-48EA-B2C5-4199F32896F4*%
%TF.FilePolarity,Positive*%
%TF.FileFunction,Legend,Top*%
%TF.Part,Single*%
G01*
G75*
%TA.AperFunction,NonConductor*%
%ADD27C,0.20000*%
%ADD28C,0.25400*%
D27*
X6870700Y7480300D02*
G03*
X6743700Y7480300I-63500J0D01*
G01*
X5041900Y9258300D02*
X5295900D01*
X5041900D02*
Y9766300D01*
X5295900D01*
Y9258300D02*
Y9766300D01*
X7532700Y7480300D02*
Y12560300D01*
X6081700D02*
X7532700D01*
X6081700Y7480300D02*
Y12560300D01*
Y7480300D02*
X6743700D01*
X6870700D02*
X7532700D01*
X4711700Y12119300D02*
Y12239300D01*
X3213100Y7496500D02*
Y7616500D01*
X3199300Y8029900D02*
Y8149900D01*
X3989001Y11483600D02*
Y12630200D01*
X2584000Y11483600D02*
X3989001D01*
X2584000Y12630200D02*
X3989001D01*
X3994201Y8528300D02*
Y9674900D01*
X2589200Y8528300D02*
X3994201D01*
X2589200Y9674900D02*
X3994201D01*
X4421200Y10539900D02*
X4621200D01*
X4421200Y10719900D02*
X4621200D01*
X4088300Y10453700D02*
Y10653700D01*
X4268300Y10453700D02*
Y10653700D01*
X3775400Y10552600D02*
X3895400D01*
X3733800Y8029900D02*
Y8149900D01*
X4215300Y8599500D02*
Y8799500D01*
X4395300Y8599500D02*
Y8799500D01*
X4600900Y8686800D02*
X4720900D01*
X2667000Y9855200D02*
X3175000D01*
Y10109200D01*
X2667000D02*
X3175000D01*
X2667000Y9855200D02*
Y10109200D01*
X4766000Y9550400D02*
X4886000D01*
X3493600Y9922200D02*
Y10042200D01*
X4978400Y12052300D02*
X5740400D01*
Y12306300D01*
X4978400Y12052300D02*
Y12306300D01*
X5740400D01*
X4991100Y11353800D02*
X5753100D01*
Y11607800D01*
X4991100Y11353800D02*
Y11607800D01*
X5753100D01*
X4495800Y11201400D02*
Y11709400D01*
Y11201400D02*
X4749800D01*
Y11709400D01*
X4495800D02*
X4749800D01*
X3621100Y7646500D02*
X3821100D01*
X3621100Y7466500D02*
X3821100D01*
X4829500Y7721600D02*
X4949500D01*
X3924300Y10071100D02*
X4686300D01*
X3924300Y9817100D02*
Y10071100D01*
X4686300Y9817100D02*
Y10071100D01*
X3924300Y9817100D02*
X4686300D01*
D28*
X4616174Y7691476D02*
G03*
X4153108Y7683673I-234674J182524D01*
G01*
X2584000Y11483600D02*
Y11714400D01*
X2229000Y11713600D02*
X2584000D01*
X2229000D02*
Y12323600D01*
X2584000D01*
Y12324400D02*
Y12630200D01*
X2589200Y8528300D02*
Y8759100D01*
X2234200Y8758300D02*
X2589200D01*
X2234200D02*
Y9368300D01*
X2589200D01*
Y9369100D02*
Y9674900D01*
X4608372Y7683673D02*
X4616174Y7691476D01*
X4154837Y7683500D02*
X4610100D01*
X5651500Y12545011D02*
Y12392660D01*
X5702283Y12443443D01*
X5753067Y12392660D01*
Y12545011D01*
X4587240Y8943340D02*
Y9095691D01*
X4663415D01*
X4688807Y9070299D01*
Y9019515D01*
X4663415Y8994123D01*
X4587240D01*
X4638023D02*
X4688807Y8943340D01*
X4739591Y9070299D02*
X4764983Y9095691D01*
X4815766D01*
X4841158Y9070299D01*
Y9044907D01*
X4815766Y9019515D01*
X4790374D01*
X4815766D01*
X4841158Y8994123D01*
Y8968732D01*
X4815766Y8943340D01*
X4764983D01*
X4739591Y8968732D01*
X4891941Y9070299D02*
X4917333Y9095691D01*
X4968117D01*
X4993509Y9070299D01*
Y9044907D01*
X4968117Y9019515D01*
X4993509Y8994123D01*
Y8968732D01*
X4968117Y8943340D01*
X4917333D01*
X4891941Y8968732D01*
Y8994123D01*
X4917333Y9019515D01*
X4891941Y9044907D01*
Y9070299D01*
X4917333Y9019515D02*
X4968117D01*
X4815840Y7978140D02*
Y8130491D01*
X4892015D01*
X4917407Y8105099D01*
Y8054315D01*
X4892015Y8028923D01*
X4815840D01*
X4866623D02*
X4917407Y7978140D01*
X4968191Y8105099D02*
X4993583Y8130491D01*
X5044366D01*
X5069758Y8105099D01*
Y8079707D01*
X5044366Y8054315D01*
X5018974D01*
X5044366D01*
X5069758Y8028923D01*
Y8003532D01*
X5044366Y7978140D01*
X4993583D01*
X4968191Y8003532D01*
X5222109Y8130491D02*
X5171325Y8105099D01*
X5120541Y8054315D01*
Y8003532D01*
X5145933Y7978140D01*
X5196717D01*
X5222109Y8003532D01*
Y8028923D01*
X5196717Y8054315D01*
X5120541D01*
X2946466Y7721625D02*
Y7873975D01*
X3022641D01*
X3048033Y7848583D01*
Y7797800D01*
X3022641Y7772408D01*
X2946466D01*
X2997249D02*
X3048033Y7721625D01*
X3098817Y7848583D02*
X3124208Y7873975D01*
X3174992D01*
X3200384Y7848583D01*
Y7823192D01*
X3174992Y7797800D01*
X3149600D01*
X3174992D01*
X3200384Y7772408D01*
Y7747017D01*
X3174992Y7721625D01*
X3124208D01*
X3098817Y7747017D01*
X3327343Y7721625D02*
Y7873975D01*
X3251167Y7797800D01*
X3352734D01*
X2946466Y8255025D02*
Y8407375D01*
X3022641D01*
X3048033Y8381983D01*
Y8331200D01*
X3022641Y8305808D01*
X2946466D01*
X2997249D02*
X3048033Y8255025D01*
X3098817Y8381983D02*
X3124208Y8407375D01*
X3174992D01*
X3200384Y8381983D01*
Y8356592D01*
X3174992Y8331200D01*
X3149600D01*
X3174992D01*
X3200384Y8305808D01*
Y8280417D01*
X3174992Y8255025D01*
X3124208D01*
X3098817Y8280417D01*
X3352734Y8255025D02*
X3251167D01*
X3352734Y8356592D01*
Y8381983D01*
X3327343Y8407375D01*
X3276559D01*
X3251167Y8381983D01*
X3505266Y8255025D02*
Y8407375D01*
X3581441D01*
X3606833Y8381983D01*
Y8331200D01*
X3581441Y8305808D01*
X3505266D01*
X3556049D02*
X3606833Y8255025D01*
X3759184D02*
X3657617D01*
X3759184Y8356592D01*
Y8381983D01*
X3733792Y8407375D01*
X3683008D01*
X3657617Y8381983D01*
X3809967Y8280417D02*
X3835359Y8255025D01*
X3886143D01*
X3911534Y8280417D01*
Y8381983D01*
X3886143Y8407375D01*
X3835359D01*
X3809967Y8381983D01*
Y8356592D01*
X3835359Y8331200D01*
X3911534D01*
X3263962Y10515625D02*
Y10667975D01*
X3340137D01*
X3365529Y10642583D01*
Y10591800D01*
X3340137Y10566408D01*
X3263962D01*
X3314745D02*
X3365529Y10515625D01*
X3416312D02*
X3467096D01*
X3441704D01*
Y10667975D01*
X3416312Y10642583D01*
X3543271Y10667975D02*
X3644839D01*
Y10642583D01*
X3543271Y10541017D01*
Y10515625D01*
X4076762Y12115825D02*
Y12268175D01*
X4152937D01*
X4178329Y12242783D01*
Y12192000D01*
X4152937Y12166608D01*
X4076762D01*
X4127545D02*
X4178329Y12115825D01*
X4229112D02*
X4279896D01*
X4254504D01*
Y12268175D01*
X4229112Y12242783D01*
X4432247Y12115825D02*
Y12268175D01*
X4356071Y12192000D01*
X4457639D01*
X4752340Y9806940D02*
Y9959291D01*
X4828515D01*
X4853907Y9933899D01*
Y9883115D01*
X4828515Y9857723D01*
X4752340D01*
X4803123D02*
X4853907Y9806940D01*
X5006258Y9959291D02*
X4955474Y9933899D01*
X4904691Y9883115D01*
Y9832332D01*
X4930083Y9806940D01*
X4980866D01*
X5006258Y9832332D01*
Y9857723D01*
X4980866Y9883115D01*
X4904691D01*
X3340100Y10157460D02*
Y10309811D01*
X3416275D01*
X3441667Y10284419D01*
Y10233635D01*
X3416275Y10208243D01*
X3340100D01*
X3390883D02*
X3441667Y10157460D01*
X3594018Y10309811D02*
X3492451D01*
Y10233635D01*
X3543234Y10259027D01*
X3568626D01*
X3594018Y10233635D01*
Y10182852D01*
X3568626Y10157460D01*
X3517843D01*
X3492451Y10182852D01*
X4254500Y7493017D02*
Y7594583D01*
X4229108Y7619975D01*
X4178325D01*
X4152933Y7594583D01*
Y7493017D01*
X4178325Y7467625D01*
X4229108D01*
X4203717Y7518408D02*
X4254500Y7467625D01*
X4229108D02*
X4254500Y7493017D01*
X4305284Y7467625D02*
X4356067D01*
X4330676D01*
Y7619975D01*
X4305284Y7594583D01*
X3939540Y10157460D02*
Y10309811D01*
X4015715D01*
X4041107Y10284419D01*
Y10233635D01*
X4015715Y10208243D01*
X3939540D01*
X4193458Y10309811D02*
X4142674Y10284419D01*
X4091891Y10233635D01*
Y10182852D01*
X4117283Y10157460D01*
X4168066D01*
X4193458Y10182852D01*
Y10208243D01*
X4168066Y10233635D01*
X4091891D01*
X4511040Y11795760D02*
Y11948111D01*
X4587215D01*
X4612607Y11922719D01*
Y11871935D01*
X4587215Y11846543D01*
X4511040D01*
X4764958Y11948111D02*
X4663391D01*
Y11871935D01*
X4714174Y11897327D01*
X4739566D01*
X4764958Y11871935D01*
Y11821152D01*
X4739566Y11795760D01*
X4688783D01*
X4663391Y11821152D01*
X4993640Y12392660D02*
Y12545011D01*
X5069815D01*
X5095207Y12519619D01*
Y12468835D01*
X5069815Y12443443D01*
X4993640D01*
X5222166Y12392660D02*
Y12545011D01*
X5145991Y12468835D01*
X5247558D01*
X5006340Y11694160D02*
Y11846511D01*
X5082515D01*
X5107907Y11821119D01*
Y11770335D01*
X5082515Y11744943D01*
X5006340D01*
X5158691Y11821119D02*
X5184083Y11846511D01*
X5234866D01*
X5260258Y11821119D01*
Y11795727D01*
X5234866Y11770335D01*
X5209474D01*
X5234866D01*
X5260258Y11744943D01*
Y11719552D01*
X5234866Y11694160D01*
X5184083D01*
X5158691Y11719552D01*
X5105441Y9855225D02*
Y10007575D01*
X5181617D01*
X5207008Y9982183D01*
Y9931400D01*
X5181617Y9906008D01*
X5105441D01*
X5359359Y9855225D02*
X5257792D01*
X5359359Y9956792D01*
Y9982183D01*
X5333967Y10007575D01*
X5283184D01*
X5257792Y9982183D01*
X2682240Y10195560D02*
Y10347911D01*
X2758415D01*
X2783807Y10322519D01*
Y10271735D01*
X2758415Y10246343D01*
X2682240D01*
X2834591Y10195560D02*
X2885374D01*
X2859983D01*
Y10347911D01*
X2834591Y10322519D01*
X4152908Y12560275D02*
X4102125D01*
X4127517D01*
Y12433317D01*
X4102125Y12407925D01*
X4076733D01*
X4051341Y12433317D01*
X4305259Y12407925D02*
X4203692D01*
X4305259Y12509492D01*
Y12534883D01*
X4279867Y12560275D01*
X4229084D01*
X4203692Y12534883D01*
X4191000Y9651975D02*
X4140217D01*
X4165608D01*
Y9525017D01*
X4140217Y9499625D01*
X4114825D01*
X4089433Y9525017D01*
X4241784Y9499625D02*
X4292567D01*
X4267176D01*
Y9651975D01*
X4241784Y9626583D01*
X3677887Y7858719D02*
X3652495Y7884111D01*
X3601712D01*
X3576320Y7858719D01*
Y7757152D01*
X3601712Y7731760D01*
X3652495D01*
X3677887Y7757152D01*
X3830238Y7884111D02*
X3728671D01*
Y7807935D01*
X3779454Y7833327D01*
X3804846D01*
X3830238Y7807935D01*
Y7757152D01*
X3804846Y7731760D01*
X3754063D01*
X3728671Y7757152D01*
X4333207Y9072839D02*
X4307815Y9098231D01*
X4257032D01*
X4231640Y9072839D01*
Y8971272D01*
X4257032Y8945880D01*
X4307815D01*
X4333207Y8971272D01*
X4460166Y8945880D02*
Y9098231D01*
X4383991Y9022055D01*
X4485558D01*
X4495808Y10413983D02*
X4470417Y10439375D01*
X4419633D01*
X4394241Y10413983D01*
Y10312417D01*
X4419633Y10287025D01*
X4470417D01*
X4495808Y10312417D01*
X4648159Y10287025D02*
X4546592D01*
X4648159Y10388592D01*
Y10413983D01*
X4622767Y10439375D01*
X4571984D01*
X4546592Y10413983D01*
X4241800Y10934683D02*
X4216408Y10960075D01*
X4165625D01*
X4140233Y10934683D01*
Y10833117D01*
X4165625Y10807725D01*
X4216408D01*
X4241800Y10833117D01*
X4292584Y10807725D02*
X4343367D01*
X4317976D01*
Y10960075D01*
X4292584Y10934683D01*
%TF.MD5,895c26d5ab9b3722fe1c0e9e77d9965c*%
M02*
