%TF.GenerationSoftware,Altium Limited,Altium Designer,25.8.1 (18)*%
G04 Layer_Color=8421504*
%FSLAX45Y45*%
%MOMM*%
%TF.SameCoordinates,EFCC0B50-9DCE-48EA-B2C5-4199F32896F4*%
%TF.FilePolarity,Positive*%
%TF.FileFunction,Paste,Top*%
%TF.Part,Single*%
G01*
G75*
%TA.AperFunction,SMDPad,CuDef*%
%ADD10R,1.40000X1.20000*%
%ADD11R,1.20000X1.40000*%
%ADD12R,1.50000X1.30000*%
%ADD13R,1.30000X1.50000*%
D10*
X4660900Y8776800D02*
D03*
X4889500Y7811600D02*
D03*
X3835400Y10642600D02*
D03*
Y10462600D02*
D03*
X4889500Y7631600D02*
D03*
X4660900Y8596800D02*
D03*
X4826000Y9460400D02*
D03*
Y9640400D02*
D03*
D11*
X4801700Y12179300D02*
D03*
X3289300Y8089900D02*
D03*
X3643800D02*
D03*
X4621700Y12179300D02*
D03*
X3123100Y7556500D02*
D03*
X3303100D02*
D03*
X3109300Y8089900D02*
D03*
X3823800D02*
D03*
X3583600Y9982200D02*
D03*
X3403600D02*
D03*
D12*
X4178300Y10648701D02*
D03*
Y10458699D02*
D03*
X4305300Y8604499D02*
D03*
Y8794501D02*
D03*
D13*
X4426199Y10629900D02*
D03*
X4616201D02*
D03*
X3816101Y7556500D02*
D03*
X3626099D02*
D03*
%TF.MD5,a068e75e186940aa938329564e2a6218*%
M02*
