%TF.GenerationSoftware,Altium Limited,Altium Designer,25.8.1 (18)*%
G04 Layer_Color=8388736*
%FSLAX45Y45*%
%MOMM*%
%TF.SameCoordinates,EFCC0B50-9DCE-48EA-B2C5-4199F32896F4*%
%TF.FilePolarity,Negative*%
%TF.FileFunction,Soldermask,Top*%
%TF.Part,Single*%
G01*
G75*
%TA.AperFunction,SMDPad,CuDef*%
%ADD29R,1.60320X1.40320*%
%ADD30R,1.40320X1.60320*%
%ADD31R,1.70320X1.50320*%
%ADD32R,1.50320X1.70320*%
%TA.AperFunction,ComponentPad*%
%ADD33R,2.20320X1.70320*%
%ADD34O,2.20320X1.70320*%
%ADD35C,1.80320*%
%ADD36R,1.80320X1.80320*%
%ADD37O,2.70320X3.20320*%
%ADD38O,1.70320X2.20320*%
%ADD39O,3.20320X2.70320*%
%ADD40O,3.20320X2.20320*%
%ADD41O,1.72720X2.23520*%
G04:AMPARAMS|DCode=42|XSize=1.7272mm|YSize=2.2352mm|CornerRadius=0mm|HoleSize=0mm|Usage=FLASHONLY|Rotation=0.000|XOffset=0mm|YOffset=0mm|HoleType=Round|Shape=Octagon|*
%AMOCTAGOND42*
4,1,8,-0.43180,1.11760,0.43180,1.11760,0.86360,0.68580,0.86360,-0.68580,0.43180,-1.11760,-0.43180,-1.11760,-0.86360,-0.68580,-0.86360,0.68580,-0.43180,1.11760,0.0*
%
%ADD42OCTAGOND42*%

%ADD43R,1.70320X2.20320*%
%TA.AperFunction,ViaPad*%
%ADD44C,1.47320*%
D29*
X4660900Y8776800D02*
D03*
X4889500Y7811600D02*
D03*
X3835400Y10642600D02*
D03*
Y10462600D02*
D03*
X4889500Y7631600D02*
D03*
X4660900Y8596800D02*
D03*
X4826000Y9460400D02*
D03*
Y9640400D02*
D03*
D30*
X4801700Y12179300D02*
D03*
X3289300Y8089900D02*
D03*
X3643800D02*
D03*
X4621700Y12179300D02*
D03*
X3123100Y7556500D02*
D03*
X3303100D02*
D03*
X3109300Y8089900D02*
D03*
X3823800D02*
D03*
X3583600Y9982200D02*
D03*
X3403600D02*
D03*
D31*
X4178300Y10648701D02*
D03*
Y10458699D02*
D03*
X4305300Y8604499D02*
D03*
Y8794501D02*
D03*
D32*
X4426199Y10629900D02*
D03*
X4616201D02*
D03*
X3816101Y7556500D02*
D03*
X3626099D02*
D03*
D33*
X5168900Y9639300D02*
D03*
X4622800Y11328400D02*
D03*
D34*
X5168900Y9385300D02*
D03*
X4622800Y11582400D02*
D03*
D35*
X5918200Y12433300D02*
D03*
Y12179300D02*
D03*
Y11671300D02*
D03*
Y11417300D02*
D03*
Y11163300D02*
D03*
Y10909300D02*
D03*
Y10401300D02*
D03*
Y10147300D02*
D03*
Y9893300D02*
D03*
Y9639300D02*
D03*
Y9131300D02*
D03*
Y8877300D02*
D03*
Y8623300D02*
D03*
Y8369300D02*
D03*
Y7861300D02*
D03*
X7696200Y12433300D02*
D03*
Y12179300D02*
D03*
Y11671300D02*
D03*
Y11417300D02*
D03*
Y11163300D02*
D03*
Y10909300D02*
D03*
Y10401300D02*
D03*
Y10147300D02*
D03*
Y9893300D02*
D03*
Y9639300D02*
D03*
Y9131300D02*
D03*
Y8877300D02*
D03*
Y8623300D02*
D03*
Y8369300D02*
D03*
Y7861300D02*
D03*
X5918200Y7607300D02*
D03*
X7696200Y11925300D02*
D03*
Y8115300D02*
D03*
Y10655300D02*
D03*
Y9385300D02*
D03*
X5918200Y11925300D02*
D03*
Y10655300D02*
D03*
Y9385300D02*
D03*
Y8115300D02*
D03*
D36*
X7696200Y7607300D02*
D03*
D37*
X2794200Y9078300D02*
D03*
X2789000Y12033600D02*
D03*
X3889000Y11633600D02*
D03*
X3894200Y8678300D02*
D03*
D38*
X2794000Y9982200D02*
D03*
X5118100Y11480800D02*
D03*
X5105400Y12179300D02*
D03*
X5372100Y11480800D02*
D03*
X5359400Y12179300D02*
D03*
X4559300Y9944100D02*
D03*
X4305300D02*
D03*
D39*
X3119000Y11578600D02*
D03*
X3124200Y8623300D02*
D03*
D40*
X3429000Y12293600D02*
D03*
X3569000Y12538600D02*
D03*
X3434200Y9338300D02*
D03*
X3574200Y9583300D02*
D03*
D41*
X4508500Y7797800D02*
D03*
X4381500Y8051800D02*
D03*
D42*
X4254500Y7797800D02*
D03*
D43*
X5613400Y12179300D02*
D03*
X3048000Y9982200D02*
D03*
X5626100Y11480800D02*
D03*
X4051300Y9944100D02*
D03*
D44*
X4953000Y10337800D02*
D03*
X5029200Y11074400D02*
D03*
X4064000Y8305800D02*
D03*
X4457700Y11049000D02*
D03*
X5518300Y9537700D02*
D03*
%TF.MD5,364f240454e8dee797157fdd801898f9*%
M02*
