%TF.GenerationSoftware,Altium Limited,Altium Designer,25.8.1 (18)*%
G04 Layer_Physical_Order=2*
G04 Layer_Color=16711680*
%FSLAX45Y45*%
%MOMM*%
%TF.SameCoordinates,EFCC0B50-9DCE-48EA-B2C5-4199F32896F4*%
%TF.FilePolarity,Positive*%
%TF.FileFunction,Copper,L2,Bot,Signal*%
%TF.Part,Single*%
G01*
G75*
%TA.AperFunction,Conductor*%
%ADD14C,0.60000*%
%TA.AperFunction,ComponentPad*%
%ADD15R,2.00000X1.50000*%
%ADD16O,2.00000X1.50000*%
%ADD17C,1.60000*%
%ADD18R,1.60000X1.60000*%
%ADD19O,2.50000X3.00000*%
%ADD20O,1.50000X2.00000*%
%ADD21O,3.00000X2.50000*%
%ADD22O,3.00000X2.00000*%
%ADD23O,1.52400X2.03200*%
G04:AMPARAMS|DCode=24|XSize=1.524mm|YSize=2.032mm|CornerRadius=0mm|HoleSize=0mm|Usage=FLASHONLY|Rotation=0.000|XOffset=0mm|YOffset=0mm|HoleType=Round|Shape=Octagon|*
%AMOCTAGOND24*
4,1,8,-0.38100,1.01600,0.38100,1.01600,0.76200,0.63500,0.76200,-0.63500,0.38100,-1.01600,-0.38100,-1.01600,-0.76200,-0.63500,-0.76200,0.63500,-0.38100,1.01600,0.0*
%
%ADD24OCTAGOND24*%

%ADD25R,1.50000X2.00000*%
%TA.AperFunction,ViaPad*%
%ADD26C,1.27000*%
G36*
X7949453Y7303247D02*
X2570446D01*
Y12650753D01*
X3396576D01*
X3416302Y12610754D01*
X3409463Y12601841D01*
X3396828Y12571336D01*
X3392518Y12538600D01*
X3396828Y12505864D01*
X3409463Y12475359D01*
X3421185Y12460082D01*
X3407762Y12424666D01*
X3403682Y12420082D01*
X3379000D01*
X3346264Y12415772D01*
X3315759Y12403137D01*
X3289564Y12383036D01*
X3269463Y12356841D01*
X3256828Y12326336D01*
X3252518Y12293600D01*
X3256828Y12260864D01*
X3269463Y12230359D01*
X3289564Y12204164D01*
X3315759Y12184063D01*
X3346264Y12171428D01*
X3379000Y12167118D01*
X3479000D01*
X3511736Y12171428D01*
X3542241Y12184063D01*
X3568436Y12204164D01*
X3588537Y12230359D01*
X3601172Y12260864D01*
X3605482Y12293600D01*
X3601172Y12326336D01*
X3588537Y12356841D01*
X3576814Y12372118D01*
X3590238Y12407534D01*
X3594318Y12412118D01*
X3619000D01*
X3651736Y12416428D01*
X3682241Y12429063D01*
X3708436Y12449164D01*
X3728537Y12475359D01*
X3741172Y12505864D01*
X3745482Y12538600D01*
X3741172Y12571336D01*
X3728537Y12601841D01*
X3721698Y12610754D01*
X3741424Y12650753D01*
X7949453D01*
Y7303247D01*
D02*
G37*
%LPC*%
G36*
X7710076Y12538700D02*
X7682324D01*
X7655517Y12531517D01*
X7631483Y12517641D01*
X7611859Y12498017D01*
X7597983Y12473983D01*
X7590800Y12447176D01*
Y12419424D01*
X7597983Y12392617D01*
X7611859Y12368583D01*
X7631483Y12348959D01*
X7655517Y12335083D01*
X7682324Y12327900D01*
X7710076D01*
X7736883Y12335083D01*
X7760917Y12348959D01*
X7780541Y12368583D01*
X7794417Y12392617D01*
X7801600Y12419424D01*
Y12447176D01*
X7794417Y12473983D01*
X7780541Y12498017D01*
X7760917Y12517641D01*
X7736883Y12531517D01*
X7710076Y12538700D01*
D02*
G37*
G36*
X5932076D02*
X5904324D01*
X5877517Y12531517D01*
X5853483Y12517641D01*
X5833859Y12498017D01*
X5819983Y12473983D01*
X5812800Y12447176D01*
Y12419424D01*
X5819983Y12392617D01*
X5833859Y12368583D01*
X5853483Y12348959D01*
X5877517Y12335083D01*
X5904324Y12327900D01*
X5932076D01*
X5958883Y12335083D01*
X5982917Y12348959D01*
X6002541Y12368583D01*
X6016417Y12392617D01*
X6023600Y12419424D01*
Y12447176D01*
X6016417Y12473983D01*
X6002541Y12498017D01*
X5982917Y12517641D01*
X5958883Y12531517D01*
X5932076Y12538700D01*
D02*
G37*
G36*
X5075400Y12316343D02*
X5075379Y12316340D01*
X5047404Y12304752D01*
X5023381Y12286319D01*
X5004948Y12262296D01*
X4993360Y12234321D01*
X4990066Y12209300D01*
X5075400D01*
Y12316343D01*
D02*
G37*
G36*
X2819000Y12221444D02*
Y12063600D01*
X2954306D01*
X2951613Y12090946D01*
X2942178Y12122048D01*
X2926856Y12150713D01*
X2906237Y12175837D01*
X2881113Y12196456D01*
X2852448Y12211777D01*
X2821346Y12221213D01*
X2819000Y12221444D01*
D02*
G37*
G36*
X2759000D02*
X2756654Y12221213D01*
X2725552Y12211777D01*
X2696887Y12196456D01*
X2671763Y12175837D01*
X2651144Y12150713D01*
X2635823Y12122048D01*
X2626387Y12090946D01*
X2623694Y12063600D01*
X2759000D01*
Y12221444D01*
D02*
G37*
G36*
X5713800Y12304700D02*
X5513000D01*
Y12053900D01*
X5713800D01*
Y12304700D01*
D02*
G37*
G36*
X5135400Y12316343D02*
Y12179300D01*
Y12042257D01*
X5135421Y12042260D01*
X5163396Y12053848D01*
X5187419Y12072281D01*
X5205852Y12096304D01*
X5217440Y12124279D01*
X5219591Y12140614D01*
X5259936D01*
X5261584Y12128090D01*
X5271701Y12103667D01*
X5287794Y12082694D01*
X5308767Y12066601D01*
X5333190Y12056484D01*
X5359400Y12053034D01*
X5385610Y12056484D01*
X5410033Y12066601D01*
X5431006Y12082694D01*
X5447099Y12103667D01*
X5457216Y12128090D01*
X5460666Y12154300D01*
Y12204300D01*
X5457216Y12230510D01*
X5447099Y12254933D01*
X5431006Y12275906D01*
X5410033Y12291999D01*
X5385610Y12302116D01*
X5359400Y12305566D01*
X5333190Y12302116D01*
X5308767Y12291999D01*
X5287794Y12275906D01*
X5271701Y12254933D01*
X5261584Y12230510D01*
X5259936Y12217986D01*
X5219591D01*
X5217440Y12234321D01*
X5205852Y12262296D01*
X5187419Y12286319D01*
X5163396Y12304752D01*
X5135421Y12316340D01*
X5135400Y12316343D01*
D02*
G37*
G36*
X5075400Y12149300D02*
X4990066D01*
X4993360Y12124279D01*
X5004948Y12096304D01*
X5023381Y12072281D01*
X5047404Y12053848D01*
X5075379Y12042260D01*
X5075400Y12042257D01*
Y12149300D01*
D02*
G37*
G36*
X7710076Y12284700D02*
X7682324D01*
X7655517Y12277517D01*
X7631483Y12263641D01*
X7611859Y12244017D01*
X7597983Y12219983D01*
X7590800Y12193176D01*
Y12165424D01*
X7597983Y12138617D01*
X7611859Y12114583D01*
X7631483Y12094959D01*
X7655517Y12081083D01*
X7657458Y12080563D01*
Y12039152D01*
X7649882Y12037122D01*
X7622518Y12021324D01*
X7600176Y11998982D01*
X7584378Y11971618D01*
X7580006Y11955300D01*
X7696200D01*
X7812394D01*
X7808022Y11971618D01*
X7792224Y11998982D01*
X7769882Y12021324D01*
X7742518Y12037122D01*
X7734942Y12039152D01*
Y12080563D01*
X7736883Y12081083D01*
X7760917Y12094959D01*
X7780541Y12114583D01*
X7794417Y12138617D01*
X7801600Y12165424D01*
Y12193176D01*
X7794417Y12219983D01*
X7780541Y12244017D01*
X7760917Y12263641D01*
X7736883Y12277517D01*
X7710076Y12284700D01*
D02*
G37*
G36*
X5932076D02*
X5904324D01*
X5877517Y12277517D01*
X5853483Y12263641D01*
X5833859Y12244017D01*
X5819983Y12219983D01*
X5812800Y12193176D01*
Y12165424D01*
X5819983Y12138617D01*
X5833859Y12114583D01*
X5853483Y12094959D01*
X5877517Y12081083D01*
X5879458Y12080563D01*
Y12039152D01*
X5871882Y12037122D01*
X5844518Y12021324D01*
X5822176Y11998982D01*
X5806378Y11971618D01*
X5802006Y11955300D01*
X5918200D01*
X6034394D01*
X6030022Y11971618D01*
X6014224Y11998982D01*
X5991882Y12021324D01*
X5964518Y12037122D01*
X5956942Y12039152D01*
Y12080563D01*
X5958883Y12081083D01*
X5982917Y12094959D01*
X6002541Y12114583D01*
X6016417Y12138617D01*
X6023600Y12165424D01*
Y12193176D01*
X6016417Y12219983D01*
X6002541Y12244017D01*
X5982917Y12263641D01*
X5958883Y12277517D01*
X5932076Y12284700D01*
D02*
G37*
G36*
X2954306Y12003600D02*
X2819000D01*
Y11845756D01*
X2821346Y11845987D01*
X2852448Y11855423D01*
X2881113Y11870744D01*
X2906237Y11891363D01*
X2926856Y11916487D01*
X2942178Y11945152D01*
X2951613Y11976254D01*
X2954306Y12003600D01*
D02*
G37*
G36*
X2759000D02*
X2623694D01*
X2626387Y11976254D01*
X2635823Y11945152D01*
X2651144Y11916487D01*
X2671763Y11891363D01*
X2696887Y11870744D01*
X2725552Y11855423D01*
X2756654Y11845987D01*
X2759000Y11845756D01*
Y12003600D01*
D02*
G37*
G36*
X7812394Y11895300D02*
X7696200D01*
X7580006D01*
X7584378Y11878982D01*
X7600176Y11851618D01*
X7622518Y11829276D01*
X7649882Y11813478D01*
X7657458Y11811448D01*
Y11770037D01*
X7655517Y11769517D01*
X7631483Y11755641D01*
X7611859Y11736017D01*
X7597983Y11711983D01*
X7590800Y11685176D01*
Y11657424D01*
X7597983Y11630617D01*
X7611859Y11606583D01*
X7631483Y11586959D01*
X7655517Y11573083D01*
X7682324Y11565900D01*
X7710076D01*
X7736883Y11573083D01*
X7760917Y11586959D01*
X7780541Y11606583D01*
X7794417Y11630617D01*
X7801600Y11657424D01*
Y11685176D01*
X7794417Y11711983D01*
X7780541Y11736017D01*
X7760917Y11755641D01*
X7736883Y11769517D01*
X7734942Y11770037D01*
Y11811448D01*
X7742518Y11813478D01*
X7769882Y11829276D01*
X7792224Y11851618D01*
X7808022Y11878982D01*
X7812394Y11895300D01*
D02*
G37*
G36*
X6034394D02*
X5918200D01*
X5802006D01*
X5806378Y11878982D01*
X5822176Y11851618D01*
X5844518Y11829276D01*
X5871882Y11813478D01*
X5879458Y11811448D01*
Y11770037D01*
X5877517Y11769517D01*
X5853483Y11755641D01*
X5833859Y11736017D01*
X5819983Y11711983D01*
X5812800Y11685176D01*
Y11657424D01*
X5819983Y11630617D01*
X5833859Y11606583D01*
X5853483Y11586959D01*
X5877517Y11573083D01*
X5904324Y11565900D01*
X5932076D01*
X5958883Y11573083D01*
X5982917Y11586959D01*
X6002541Y11606583D01*
X6016417Y11630617D01*
X6023600Y11657424D01*
Y11685176D01*
X6016417Y11711983D01*
X6002541Y11736017D01*
X5982917Y11755641D01*
X5958883Y11769517D01*
X5956942Y11770037D01*
Y11811448D01*
X5964518Y11813478D01*
X5991882Y11829276D01*
X6014224Y11851618D01*
X6030022Y11878982D01*
X6034394Y11895300D01*
D02*
G37*
G36*
X5088100Y11617843D02*
X5088079Y11617840D01*
X5060104Y11606252D01*
X5036081Y11587819D01*
X5017648Y11563796D01*
X5006060Y11535821D01*
X5002766Y11510800D01*
X5088100D01*
Y11617843D01*
D02*
G37*
G36*
X3889000Y11809728D02*
X3859516Y11806824D01*
X3831166Y11798224D01*
X3805038Y11784258D01*
X3782136Y11765463D01*
X3763342Y11742562D01*
X3749376Y11716434D01*
X3740776Y11688084D01*
X3737872Y11658600D01*
Y11608600D01*
X3740776Y11579117D01*
X3749376Y11550766D01*
X3763342Y11524638D01*
X3782136Y11501737D01*
X3805038Y11482942D01*
X3831166Y11468976D01*
X3859516Y11460376D01*
X3889000Y11457472D01*
X3918483Y11460376D01*
X3946834Y11468976D01*
X3972962Y11482942D01*
X3995863Y11501737D01*
X4014658Y11524638D01*
X4028624Y11550766D01*
X4037224Y11579117D01*
X4040128Y11608600D01*
Y11658600D01*
X4037224Y11688084D01*
X4028624Y11716434D01*
X4014658Y11742562D01*
X3995863Y11765463D01*
X3972962Y11784258D01*
X3946834Y11798224D01*
X3918483Y11806824D01*
X3889000Y11809728D01*
D02*
G37*
G36*
X3144000Y11729728D02*
X3094000D01*
X3064516Y11726824D01*
X3036166Y11718224D01*
X3010038Y11704258D01*
X2987137Y11685463D01*
X2968342Y11662562D01*
X2954376Y11636434D01*
X2945776Y11608083D01*
X2942872Y11578600D01*
X2945776Y11549116D01*
X2954376Y11520766D01*
X2968342Y11494638D01*
X2987137Y11471737D01*
X3010038Y11452942D01*
X3036166Y11438976D01*
X3064516Y11430376D01*
X3094000Y11427472D01*
X3144000D01*
X3173483Y11430376D01*
X3201834Y11438976D01*
X3227962Y11452942D01*
X3250863Y11471737D01*
X3269658Y11494638D01*
X3283624Y11520766D01*
X3292224Y11549116D01*
X3295128Y11578600D01*
X3292224Y11608083D01*
X3283624Y11636434D01*
X3269658Y11662562D01*
X3250863Y11685463D01*
X3227962Y11704258D01*
X3201834Y11718224D01*
X3173483Y11726824D01*
X3144000Y11729728D01*
D02*
G37*
G36*
X5726500Y11606200D02*
X5525700D01*
Y11355400D01*
X5726500D01*
Y11606200D01*
D02*
G37*
G36*
X5148100Y11617843D02*
Y11480800D01*
Y11343757D01*
X5148121Y11343760D01*
X5176096Y11355348D01*
X5200119Y11373781D01*
X5218552Y11397804D01*
X5230140Y11425779D01*
X5232291Y11442114D01*
X5272636D01*
X5274284Y11429590D01*
X5284401Y11405167D01*
X5300494Y11384194D01*
X5321467Y11368101D01*
X5345890Y11357984D01*
X5372100Y11354534D01*
X5398310Y11357984D01*
X5422733Y11368101D01*
X5443706Y11384194D01*
X5459799Y11405167D01*
X5469916Y11429590D01*
X5473366Y11455800D01*
Y11505800D01*
X5469916Y11532010D01*
X5459799Y11556433D01*
X5443706Y11577406D01*
X5422733Y11593499D01*
X5398310Y11603616D01*
X5372100Y11607066D01*
X5345890Y11603616D01*
X5321467Y11593499D01*
X5300494Y11577406D01*
X5284401Y11556433D01*
X5274284Y11532010D01*
X5272636Y11519486D01*
X5232291D01*
X5230140Y11535821D01*
X5218552Y11563796D01*
X5200119Y11587819D01*
X5176096Y11606252D01*
X5148121Y11617840D01*
X5148100Y11617843D01*
D02*
G37*
G36*
X5088100Y11450800D02*
X5002766D01*
X5006060Y11425779D01*
X5017648Y11397804D01*
X5036081Y11373781D01*
X5060104Y11355348D01*
X5088079Y11343760D01*
X5088100Y11343757D01*
Y11450800D01*
D02*
G37*
G36*
X7710076Y11522700D02*
X7682324D01*
X7655517Y11515517D01*
X7631483Y11501641D01*
X7611859Y11482017D01*
X7597983Y11457983D01*
X7590800Y11431176D01*
Y11403424D01*
X7597983Y11376617D01*
X7611859Y11352583D01*
X7631483Y11332959D01*
X7655517Y11319083D01*
X7682324Y11311900D01*
X7710076D01*
X7736883Y11319083D01*
X7760917Y11332959D01*
X7780541Y11352583D01*
X7794417Y11376617D01*
X7801600Y11403424D01*
Y11431176D01*
X7794417Y11457983D01*
X7780541Y11482017D01*
X7760917Y11501641D01*
X7736883Y11515517D01*
X7710076Y11522700D01*
D02*
G37*
G36*
X5932076D02*
X5904324D01*
X5877517Y11515517D01*
X5853483Y11501641D01*
X5833859Y11482017D01*
X5819983Y11457983D01*
X5812800Y11431176D01*
Y11403424D01*
X5819983Y11376617D01*
X5833859Y11352583D01*
X5853483Y11332959D01*
X5877517Y11319083D01*
X5904324Y11311900D01*
X5932076D01*
X5958883Y11319083D01*
X5982917Y11332959D01*
X6002541Y11352583D01*
X6016417Y11376617D01*
X6023600Y11403424D01*
Y11431176D01*
X6016417Y11457983D01*
X6002541Y11482017D01*
X5982917Y11501641D01*
X5958883Y11515517D01*
X5932076Y11522700D01*
D02*
G37*
G36*
X4647800Y11683666D02*
X4597800D01*
X4571590Y11680216D01*
X4547167Y11670099D01*
X4526194Y11654006D01*
X4510101Y11633033D01*
X4499984Y11608610D01*
X4496534Y11582400D01*
X4499984Y11556190D01*
X4510101Y11531767D01*
X4526194Y11510794D01*
X4547167Y11494701D01*
X4571590Y11484584D01*
X4597800Y11481134D01*
X4647800D01*
X4674010Y11484584D01*
X4698433Y11494701D01*
X4736315Y11473349D01*
Y11428800D01*
X4497400D01*
Y11228000D01*
X4566315D01*
Y11118674D01*
X4537606Y11107116D01*
X4526315Y11106109D01*
X4512286Y11120138D01*
X4492014Y11131842D01*
X4469404Y11137900D01*
X4445996D01*
X4423386Y11131842D01*
X4403114Y11120138D01*
X4386562Y11103586D01*
X4374858Y11083314D01*
X4368800Y11060704D01*
Y11037296D01*
X4374858Y11014686D01*
X4386562Y10994414D01*
X4403114Y10977862D01*
X4423386Y10966158D01*
X4445996Y10960100D01*
X4466718D01*
X4896515Y10530303D01*
Y10407038D01*
X4881862Y10392386D01*
X4870158Y10372114D01*
X4864100Y10349504D01*
Y10326096D01*
X4870158Y10303486D01*
X4881862Y10283214D01*
X4898414Y10266662D01*
X4918686Y10254958D01*
X4941296Y10248900D01*
X4964704D01*
X4987314Y10254958D01*
X5007586Y10266662D01*
X5024138Y10283214D01*
X5035842Y10303486D01*
X5041900Y10326096D01*
Y10349504D01*
X5035842Y10372114D01*
X5024138Y10392386D01*
X5009485Y10407038D01*
Y10551264D01*
X5015015Y10556159D01*
X5046954Y10570363D01*
X5609771Y10007547D01*
Y9942714D01*
X5344859Y9677802D01*
X5334300Y9661999D01*
X5331371Y9661581D01*
X5294300Y9683551D01*
Y9739700D01*
X5043500D01*
Y9538900D01*
X5123109D01*
X5125731Y9498900D01*
X5113879Y9497340D01*
X5085904Y9485752D01*
X5061881Y9467319D01*
X5043448Y9443296D01*
X5031860Y9415321D01*
X5031857Y9415300D01*
X5168900D01*
Y9385300D01*
X5198900D01*
Y9269966D01*
X5223921Y9273260D01*
X5251896Y9284848D01*
X5275919Y9303281D01*
X5288315Y9319436D01*
X5321545Y9312651D01*
X5328315Y9309004D01*
Y9078497D01*
X4929603Y8679785D01*
X4381501D01*
X4381500Y8679786D01*
X4359884Y8675486D01*
X4341559Y8663241D01*
X4341558Y8663240D01*
X4073018Y8394700D01*
X4052296D01*
X4029686Y8388642D01*
X4009414Y8376938D01*
X3992862Y8360386D01*
X3981158Y8340114D01*
X3975100Y8317504D01*
Y8294096D01*
X3981158Y8271486D01*
X3992862Y8251214D01*
X4009414Y8234662D01*
X4029686Y8222958D01*
X4052296Y8216900D01*
X4075704D01*
X4098314Y8222958D01*
X4118586Y8234662D01*
X4135138Y8251214D01*
X4146842Y8271486D01*
X4152900Y8294096D01*
Y8314818D01*
X4404897Y8566815D01*
X4952999D01*
X4953000Y8566814D01*
X4974616Y8571114D01*
X4992941Y8583359D01*
X5421465Y9011883D01*
X5435242Y9010287D01*
X5461465Y8998121D01*
Y7766251D01*
X5461465Y7766250D01*
X5465765Y7744634D01*
X5478009Y7726309D01*
X5827458Y7376860D01*
X5827459Y7376859D01*
X5845784Y7364614D01*
X5867400Y7360314D01*
X5867402Y7360315D01*
X6515826D01*
X6515827Y7360314D01*
X6537443Y7364614D01*
X6555769Y7376859D01*
X6983724Y7804815D01*
X7607106D01*
X7611859Y7796583D01*
X7631483Y7776959D01*
X7655517Y7763083D01*
X7682324Y7755900D01*
X7710076D01*
X7736883Y7763083D01*
X7760917Y7776959D01*
X7780541Y7796583D01*
X7794417Y7820617D01*
X7801600Y7847424D01*
Y7875176D01*
X7794417Y7901983D01*
X7780541Y7926017D01*
X7760917Y7945641D01*
X7736883Y7959517D01*
X7734942Y7960037D01*
Y8001448D01*
X7742518Y8003478D01*
X7769882Y8019276D01*
X7792224Y8041618D01*
X7808022Y8068982D01*
X7812394Y8085300D01*
X7696200D01*
X7580006D01*
X7584378Y8068982D01*
X7600176Y8041618D01*
X7622518Y8019276D01*
X7649882Y8003478D01*
X7657458Y8001448D01*
Y7960037D01*
X7655517Y7959517D01*
X7631483Y7945641D01*
X7611859Y7926017D01*
X7607106Y7917785D01*
X6960329D01*
X6960327Y7917786D01*
X6938712Y7913486D01*
X6920386Y7901241D01*
X6920386Y7901240D01*
X6492430Y7473285D01*
X5972936D01*
X5969147Y7482937D01*
X5966162Y7513285D01*
X5982917Y7522959D01*
X6002541Y7542583D01*
X6016417Y7566617D01*
X6023600Y7593424D01*
Y7621176D01*
X6016417Y7647983D01*
X6002541Y7672017D01*
X5982917Y7691641D01*
X5958883Y7705517D01*
X5932076Y7712700D01*
X5904324D01*
X5877517Y7705517D01*
X5853483Y7691641D01*
X5833859Y7672017D01*
X5819983Y7647983D01*
X5812800Y7621176D01*
Y7607851D01*
X5774314Y7589768D01*
X5574435Y7789647D01*
Y8847856D01*
X5614071Y8853627D01*
X5626315Y8835302D01*
X5815260Y8646357D01*
X5812800Y8637176D01*
Y8609424D01*
X5819983Y8582617D01*
X5833859Y8558583D01*
X5853483Y8538959D01*
X5877517Y8525083D01*
X5904324Y8517900D01*
X5932076D01*
X5958883Y8525083D01*
X5982917Y8538959D01*
X6002541Y8558583D01*
X6016417Y8582617D01*
X6023600Y8609424D01*
Y8637176D01*
X6016417Y8663983D01*
X6002541Y8688017D01*
X5982917Y8707641D01*
X5958883Y8721517D01*
X5932076Y8728700D01*
X5927377D01*
X5925315Y8731900D01*
X5927369Y8744055D01*
X5944912Y8775340D01*
X5958883Y8779083D01*
X5982917Y8792959D01*
X6002541Y8812583D01*
X6016417Y8836617D01*
X6023600Y8863424D01*
Y8891176D01*
X6016417Y8917983D01*
X6002541Y8942017D01*
X5982917Y8961641D01*
X5958883Y8975517D01*
X5932076Y8982700D01*
X5927377D01*
X5925315Y8985900D01*
X5927369Y8998055D01*
X5944912Y9029340D01*
X5958883Y9033083D01*
X5982917Y9046959D01*
X6002541Y9066583D01*
X6016417Y9090617D01*
X6023600Y9117424D01*
Y9145176D01*
X6016417Y9171983D01*
X6002541Y9196017D01*
X5982917Y9215641D01*
X5958883Y9229517D01*
X5956942Y9230037D01*
Y9271448D01*
X5964518Y9273478D01*
X5991882Y9289276D01*
X6014224Y9311618D01*
X6030022Y9338982D01*
X6034394Y9355300D01*
X5918200D01*
Y9415300D01*
X6034394D01*
X6030022Y9431618D01*
X6014224Y9458982D01*
X5991882Y9481324D01*
X5964518Y9497122D01*
X5956942Y9499152D01*
Y9540563D01*
X5958883Y9541083D01*
X5982917Y9554959D01*
X6002541Y9574583D01*
X6016417Y9598617D01*
X6023600Y9625424D01*
Y9653176D01*
X6016417Y9679983D01*
X6002541Y9704017D01*
X5982917Y9723641D01*
X5958883Y9737517D01*
X5932076Y9744700D01*
X5904324D01*
X5877517Y9737517D01*
X5862742Y9728987D01*
X5834069Y9739952D01*
X5827147Y9745767D01*
Y9786833D01*
X5834069Y9792648D01*
X5862742Y9803613D01*
X5877517Y9795083D01*
X5904324Y9787900D01*
X5932076D01*
X5958883Y9795083D01*
X5982917Y9808959D01*
X6002541Y9828583D01*
X6016417Y9852617D01*
X6023600Y9879424D01*
Y9907176D01*
X6016417Y9933983D01*
X6002541Y9958017D01*
X5982917Y9977641D01*
X5958883Y9991517D01*
X5932076Y9998700D01*
X5904324D01*
X5877517Y9991517D01*
X5862742Y9982987D01*
X5834069Y9993952D01*
X5827147Y9999767D01*
Y10040833D01*
X5834069Y10046648D01*
X5862742Y10057613D01*
X5877517Y10049083D01*
X5904324Y10041900D01*
X5932076D01*
X5958883Y10049083D01*
X5982917Y10062959D01*
X6002541Y10082583D01*
X6016417Y10106617D01*
X6023600Y10133424D01*
Y10161176D01*
X6016417Y10187983D01*
X6002541Y10212017D01*
X5982917Y10231641D01*
X5958883Y10245517D01*
X5932076Y10252700D01*
X5904324D01*
X5877517Y10245517D01*
X5853483Y10231641D01*
X5833859Y10212017D01*
X5819983Y10187983D01*
X5815352Y10170699D01*
X5788826Y10158483D01*
X5772800Y10156683D01*
X5370668Y10558815D01*
X5387237Y10598815D01*
X5812248D01*
X5822176Y10581618D01*
X5844518Y10559276D01*
X5871882Y10543478D01*
X5879458Y10541448D01*
Y10500037D01*
X5877517Y10499517D01*
X5853483Y10485641D01*
X5833859Y10466017D01*
X5819983Y10441983D01*
X5812800Y10415176D01*
Y10387424D01*
X5819983Y10360617D01*
X5833859Y10336583D01*
X5853483Y10316959D01*
X5877517Y10303083D01*
X5904324Y10295900D01*
X5932076D01*
X5958883Y10303083D01*
X5982917Y10316959D01*
X6002541Y10336583D01*
X6016417Y10360617D01*
X6023600Y10387424D01*
Y10415176D01*
X6016417Y10441983D01*
X6002541Y10466017D01*
X5982917Y10485641D01*
X5958883Y10499517D01*
X5956942Y10500037D01*
Y10541448D01*
X5964518Y10543478D01*
X5991882Y10559276D01*
X6014224Y10581618D01*
X6030022Y10608982D01*
X6034394Y10625300D01*
X5918200D01*
Y10685300D01*
X6034394D01*
X6030022Y10701618D01*
X6014224Y10728982D01*
X5991882Y10751324D01*
X5964518Y10767122D01*
X5956942Y10769152D01*
Y10810563D01*
X5958883Y10811083D01*
X5982917Y10824959D01*
X6002541Y10844583D01*
X6016417Y10868617D01*
X6023600Y10895424D01*
Y10923176D01*
X6016417Y10949983D01*
X6002541Y10974017D01*
X5982917Y10993641D01*
X5958883Y11007517D01*
X5932076Y11014700D01*
X5904324D01*
X5877517Y11007517D01*
X5853483Y10993641D01*
X5833859Y10974017D01*
X5819983Y10949983D01*
X5812800Y10923176D01*
Y10895424D01*
X5819983Y10868617D01*
X5833859Y10844583D01*
X5853483Y10824959D01*
X5877517Y10811083D01*
X5879458Y10810563D01*
Y10769152D01*
X5871882Y10767122D01*
X5844518Y10751324D01*
X5822176Y10728982D01*
X5812248Y10711785D01*
X5370097D01*
X5092466Y10989417D01*
X5092751Y10991580D01*
X5112021Y11010849D01*
X5125647Y11034451D01*
X5128313Y11044400D01*
X5029200D01*
Y11074400D01*
X4999200D01*
Y11173513D01*
X4989251Y11170847D01*
X4965649Y11157221D01*
X4946379Y11137951D01*
X4932753Y11114349D01*
X4925700Y11088026D01*
Y11060774D01*
X4925855Y11060197D01*
X4889992Y11039491D01*
X4849285Y11080198D01*
Y11543759D01*
X4849285Y11543761D01*
X4844985Y11565376D01*
X4832741Y11583702D01*
X4832740Y11583702D01*
X4797594Y11618849D01*
X4779269Y11631093D01*
X4757653Y11635393D01*
X4757651Y11635393D01*
X4733689D01*
X4719406Y11654006D01*
X4698433Y11670099D01*
X4674010Y11680216D01*
X4647800Y11683666D01*
D02*
G37*
G36*
X5059200Y11173513D02*
Y11104400D01*
X5128313D01*
X5125647Y11114349D01*
X5112021Y11137951D01*
X5092751Y11157221D01*
X5069149Y11170847D01*
X5059200Y11173513D01*
D02*
G37*
G36*
X7710076Y11268700D02*
X7682324D01*
X7655517Y11261517D01*
X7631483Y11247641D01*
X7611859Y11228017D01*
X7597983Y11203983D01*
X7590800Y11177176D01*
Y11149424D01*
X7597983Y11122617D01*
X7611859Y11098583D01*
X7631483Y11078959D01*
X7655517Y11065083D01*
X7682324Y11057900D01*
X7710076D01*
X7736883Y11065083D01*
X7760917Y11078959D01*
X7780541Y11098583D01*
X7794417Y11122617D01*
X7801600Y11149424D01*
Y11177176D01*
X7794417Y11203983D01*
X7780541Y11228017D01*
X7760917Y11247641D01*
X7736883Y11261517D01*
X7710076Y11268700D01*
D02*
G37*
G36*
X5932076D02*
X5904324D01*
X5877517Y11261517D01*
X5853483Y11247641D01*
X5833859Y11228017D01*
X5819983Y11203983D01*
X5812800Y11177176D01*
Y11149424D01*
X5819983Y11122617D01*
X5833859Y11098583D01*
X5853483Y11078959D01*
X5877517Y11065083D01*
X5904324Y11057900D01*
X5932076D01*
X5958883Y11065083D01*
X5982917Y11078959D01*
X6002541Y11098583D01*
X6016417Y11122617D01*
X6023600Y11149424D01*
Y11177176D01*
X6016417Y11203983D01*
X6002541Y11228017D01*
X5982917Y11247641D01*
X5958883Y11261517D01*
X5932076Y11268700D01*
D02*
G37*
G36*
X7710076Y11014700D02*
X7682324D01*
X7655517Y11007517D01*
X7631483Y10993641D01*
X7611859Y10974017D01*
X7597983Y10949983D01*
X7590800Y10923176D01*
Y10895424D01*
X7597983Y10868617D01*
X7611859Y10844583D01*
X7631483Y10824959D01*
X7655517Y10811083D01*
X7657458Y10810563D01*
Y10769152D01*
X7649882Y10767122D01*
X7622518Y10751324D01*
X7600176Y10728982D01*
X7584378Y10701618D01*
X7580006Y10685300D01*
X7696200D01*
X7812394D01*
X7808022Y10701618D01*
X7792224Y10728982D01*
X7769882Y10751324D01*
X7742518Y10767122D01*
X7734942Y10769152D01*
Y10810563D01*
X7736883Y10811083D01*
X7760917Y10824959D01*
X7780541Y10844583D01*
X7794417Y10868617D01*
X7801600Y10895424D01*
Y10923176D01*
X7794417Y10949983D01*
X7780541Y10974017D01*
X7760917Y10993641D01*
X7736883Y11007517D01*
X7710076Y11014700D01*
D02*
G37*
G36*
X7812394Y10625300D02*
X7696200D01*
X7580006D01*
X7584378Y10608982D01*
X7600176Y10581618D01*
X7622518Y10559276D01*
X7649882Y10543478D01*
X7657458Y10541448D01*
Y10500037D01*
X7655517Y10499517D01*
X7631483Y10485641D01*
X7611859Y10466017D01*
X7597983Y10441983D01*
X7590800Y10415176D01*
Y10387424D01*
X7597983Y10360617D01*
X7611859Y10336583D01*
X7631483Y10316959D01*
X7655517Y10303083D01*
X7682324Y10295900D01*
X7710076D01*
X7736883Y10303083D01*
X7760917Y10316959D01*
X7780541Y10336583D01*
X7794417Y10360617D01*
X7801600Y10387424D01*
Y10415176D01*
X7794417Y10441983D01*
X7780541Y10466017D01*
X7760917Y10485641D01*
X7736883Y10499517D01*
X7734942Y10500037D01*
Y10541448D01*
X7742518Y10543478D01*
X7769882Y10559276D01*
X7792224Y10581618D01*
X7808022Y10608982D01*
X7812394Y10625300D01*
D02*
G37*
G36*
X7710076Y10252700D02*
X7682324D01*
X7655517Y10245517D01*
X7631483Y10231641D01*
X7611859Y10212017D01*
X7597983Y10187983D01*
X7590800Y10161176D01*
Y10133424D01*
X7597983Y10106617D01*
X7611859Y10082583D01*
X7631483Y10062959D01*
X7655517Y10049083D01*
X7682324Y10041900D01*
X7710076D01*
X7736883Y10049083D01*
X7760917Y10062959D01*
X7780541Y10082583D01*
X7794417Y10106617D01*
X7801600Y10133424D01*
Y10161176D01*
X7794417Y10187983D01*
X7780541Y10212017D01*
X7760917Y10231641D01*
X7736883Y10245517D01*
X7710076Y10252700D01*
D02*
G37*
G36*
X2764000Y10119243D02*
X2763979Y10119240D01*
X2736004Y10107652D01*
X2711981Y10089219D01*
X2693548Y10065196D01*
X2681960Y10037221D01*
X2678666Y10012200D01*
X2764000D01*
Y10119243D01*
D02*
G37*
G36*
X2824000D02*
Y9982200D01*
Y9845157D01*
X2824021Y9845160D01*
X2851996Y9856748D01*
X2876019Y9875181D01*
X2894452Y9899204D01*
X2906040Y9927179D01*
X2907600Y9939031D01*
X2947600Y9936409D01*
Y9856800D01*
X3148400D01*
Y10107600D01*
X2947600D01*
Y10027991D01*
X2907600Y10025369D01*
X2906040Y10037221D01*
X2894452Y10065196D01*
X2876019Y10089219D01*
X2851996Y10107652D01*
X2824021Y10119240D01*
X2824000Y10119243D01*
D02*
G37*
G36*
X2764000Y9952200D02*
X2678666D01*
X2681960Y9927179D01*
X2693548Y9899204D01*
X2711981Y9875181D01*
X2736004Y9856748D01*
X2763979Y9845160D01*
X2764000Y9845157D01*
Y9952200D01*
D02*
G37*
G36*
X4559300Y10070366D02*
X4533090Y10066916D01*
X4508667Y10056799D01*
X4487694Y10040706D01*
X4471601Y10019733D01*
X4461484Y9995310D01*
X4458034Y9969100D01*
Y9919100D01*
X4461484Y9892890D01*
X4471601Y9868467D01*
X4487694Y9847494D01*
X4508667Y9831401D01*
X4533090Y9821284D01*
X4559300Y9817834D01*
X4585510Y9821284D01*
X4609933Y9831401D01*
X4630906Y9847494D01*
X4646999Y9868467D01*
X4657116Y9892890D01*
X4660566Y9919100D01*
Y9969100D01*
X4657116Y9995310D01*
X4646999Y10019733D01*
X4630906Y10040706D01*
X4609933Y10056799D01*
X4585510Y10066916D01*
X4559300Y10070366D01*
D02*
G37*
G36*
X4305300D02*
X4279090Y10066916D01*
X4254667Y10056799D01*
X4233694Y10040706D01*
X4217601Y10019733D01*
X4207484Y9995310D01*
X4204034Y9969100D01*
Y9919100D01*
X4207484Y9892890D01*
X4217601Y9868467D01*
X4233694Y9847494D01*
X4254667Y9831401D01*
X4279090Y9821284D01*
X4305300Y9817834D01*
X4331510Y9821284D01*
X4355933Y9831401D01*
X4376906Y9847494D01*
X4392999Y9868467D01*
X4403116Y9892890D01*
X4406566Y9919100D01*
Y9969100D01*
X4403116Y9995310D01*
X4392999Y10019733D01*
X4376906Y10040706D01*
X4355933Y10056799D01*
X4331510Y10066916D01*
X4305300Y10070366D01*
D02*
G37*
G36*
X7710076Y9998700D02*
X7682324D01*
X7655517Y9991517D01*
X7631483Y9977641D01*
X7611859Y9958017D01*
X7597983Y9933983D01*
X7590800Y9907176D01*
Y9879424D01*
X7597983Y9852617D01*
X7611859Y9828583D01*
X7631483Y9808959D01*
X7655517Y9795083D01*
X7682324Y9787900D01*
X7710076D01*
X7736883Y9795083D01*
X7760917Y9808959D01*
X7780541Y9828583D01*
X7794417Y9852617D01*
X7801600Y9879424D01*
Y9907176D01*
X7794417Y9933983D01*
X7780541Y9958017D01*
X7760917Y9977641D01*
X7736883Y9991517D01*
X7710076Y9998700D01*
D02*
G37*
G36*
Y9744700D02*
X7682324D01*
X7655517Y9737517D01*
X7631483Y9723641D01*
X7611859Y9704017D01*
X7597983Y9679983D01*
X7590800Y9653176D01*
Y9625424D01*
X7597983Y9598617D01*
X7611859Y9574583D01*
X7631483Y9554959D01*
X7655517Y9541083D01*
X7657458Y9540563D01*
Y9499152D01*
X7649882Y9497122D01*
X7622518Y9481324D01*
X7600176Y9458982D01*
X7584378Y9431618D01*
X7580006Y9415300D01*
X7696200D01*
X7812394D01*
X7808022Y9431618D01*
X7792224Y9458982D01*
X7769882Y9481324D01*
X7742518Y9497122D01*
X7734942Y9499152D01*
Y9540563D01*
X7736883Y9541083D01*
X7760917Y9554959D01*
X7780541Y9574583D01*
X7794417Y9598617D01*
X7801600Y9625424D01*
Y9653176D01*
X7794417Y9679983D01*
X7780541Y9704017D01*
X7760917Y9723641D01*
X7736883Y9737517D01*
X7710076Y9744700D01*
D02*
G37*
G36*
X5138900Y9355300D02*
X5031857D01*
X5031860Y9355279D01*
X5043448Y9327304D01*
X5061881Y9303281D01*
X5085904Y9284848D01*
X5113879Y9273260D01*
X5138900Y9269966D01*
Y9355300D01*
D02*
G37*
G36*
X3624200Y9709782D02*
X3524200D01*
X3491464Y9705472D01*
X3460959Y9692837D01*
X3434764Y9672737D01*
X3414663Y9646541D01*
X3402028Y9616036D01*
X3397718Y9583300D01*
X3402028Y9550564D01*
X3414663Y9520059D01*
X3426386Y9504782D01*
X3412962Y9469366D01*
X3408882Y9464782D01*
X3384200D01*
X3351464Y9460472D01*
X3320959Y9447837D01*
X3294764Y9427737D01*
X3274664Y9401541D01*
X3262028Y9371036D01*
X3257718Y9338300D01*
X3262028Y9305564D01*
X3274664Y9275059D01*
X3294764Y9248864D01*
X3320959Y9228763D01*
X3351464Y9216128D01*
X3384200Y9211818D01*
X3484200D01*
X3516936Y9216128D01*
X3547441Y9228763D01*
X3573636Y9248864D01*
X3593737Y9275059D01*
X3606372Y9305564D01*
X3610682Y9338300D01*
X3606372Y9371036D01*
X3593737Y9401541D01*
X3582015Y9416818D01*
X3595439Y9452234D01*
X3599519Y9456818D01*
X3624200D01*
X3656936Y9461128D01*
X3687441Y9473763D01*
X3713636Y9493864D01*
X3733737Y9520059D01*
X3746372Y9550564D01*
X3750682Y9583300D01*
X3746372Y9616036D01*
X3733737Y9646541D01*
X3713636Y9672737D01*
X3687441Y9692837D01*
X3656936Y9705472D01*
X3624200Y9709782D01*
D02*
G37*
G36*
X2824200Y9266144D02*
Y9108300D01*
X2959506D01*
X2956813Y9135646D01*
X2947378Y9166748D01*
X2932056Y9195413D01*
X2911437Y9220537D01*
X2886313Y9241156D01*
X2857648Y9256478D01*
X2826546Y9265913D01*
X2824200Y9266144D01*
D02*
G37*
G36*
X2764200D02*
X2761855Y9265913D01*
X2730752Y9256478D01*
X2702088Y9241156D01*
X2676963Y9220537D01*
X2656344Y9195413D01*
X2641023Y9166748D01*
X2631588Y9135646D01*
X2628894Y9108300D01*
X2764200D01*
Y9266144D01*
D02*
G37*
G36*
X7812394Y9355300D02*
X7696200D01*
X7580006D01*
X7584378Y9338982D01*
X7600176Y9311618D01*
X7622518Y9289276D01*
X7649882Y9273478D01*
X7657458Y9271448D01*
Y9230037D01*
X7655517Y9229517D01*
X7631483Y9215641D01*
X7611859Y9196017D01*
X7597983Y9171983D01*
X7590800Y9145176D01*
Y9117424D01*
X7597983Y9090617D01*
X7611859Y9066583D01*
X7631483Y9046959D01*
X7655517Y9033083D01*
X7682324Y9025900D01*
X7710076D01*
X7736883Y9033083D01*
X7760917Y9046959D01*
X7780541Y9066583D01*
X7794417Y9090617D01*
X7801600Y9117424D01*
Y9145176D01*
X7794417Y9171983D01*
X7780541Y9196017D01*
X7760917Y9215641D01*
X7736883Y9229517D01*
X7734942Y9230037D01*
Y9271448D01*
X7742518Y9273478D01*
X7769882Y9289276D01*
X7792224Y9311618D01*
X7808022Y9338982D01*
X7812394Y9355300D01*
D02*
G37*
G36*
X2959506Y9048300D02*
X2824200D01*
Y8890456D01*
X2826546Y8890688D01*
X2857648Y8900123D01*
X2886313Y8915444D01*
X2911437Y8936063D01*
X2932056Y8961188D01*
X2947378Y8989852D01*
X2956813Y9020955D01*
X2959506Y9048300D01*
D02*
G37*
G36*
X2764200D02*
X2628894D01*
X2631588Y9020955D01*
X2641023Y8989852D01*
X2656344Y8961188D01*
X2676963Y8936063D01*
X2702088Y8915444D01*
X2730752Y8900123D01*
X2761855Y8890688D01*
X2764200Y8890456D01*
Y9048300D01*
D02*
G37*
G36*
X7710076Y8982700D02*
X7682324D01*
X7655517Y8975517D01*
X7631483Y8961641D01*
X7611859Y8942017D01*
X7597983Y8917983D01*
X7590800Y8891176D01*
Y8863424D01*
X7597983Y8836617D01*
X7611859Y8812583D01*
X7631483Y8792959D01*
X7655517Y8779083D01*
X7682324Y8771900D01*
X7710076D01*
X7736883Y8779083D01*
X7760917Y8792959D01*
X7780541Y8812583D01*
X7794417Y8836617D01*
X7801600Y8863424D01*
Y8891176D01*
X7794417Y8917983D01*
X7780541Y8942017D01*
X7760917Y8961641D01*
X7736883Y8975517D01*
X7710076Y8982700D01*
D02*
G37*
G36*
X4151700Y10069500D02*
X3950900D01*
Y9818700D01*
X3994815D01*
Y9548797D01*
X3208277Y8762259D01*
X3207034Y8762924D01*
X3178684Y8771524D01*
X3149200Y8774428D01*
X3099200D01*
X3069716Y8771524D01*
X3041366Y8762924D01*
X3015238Y8748958D01*
X2992337Y8730163D01*
X2973542Y8707262D01*
X2959576Y8681134D01*
X2950976Y8652784D01*
X2948072Y8623300D01*
X2950976Y8593816D01*
X2959576Y8565466D01*
X2973542Y8539338D01*
X2992337Y8516437D01*
X3015238Y8497642D01*
X3041366Y8483676D01*
X3069716Y8475076D01*
X3099200Y8472172D01*
X3149200D01*
X3178684Y8475076D01*
X3207034Y8483676D01*
X3233162Y8497642D01*
X3256063Y8516437D01*
X3274858Y8539338D01*
X3288824Y8565466D01*
X3297424Y8593816D01*
X3300328Y8623300D01*
X3297424Y8652784D01*
X3288824Y8681134D01*
X3288159Y8682377D01*
X4091240Y9485458D01*
X4091241Y9485459D01*
X4103486Y9503784D01*
X4107786Y9525400D01*
X4107785Y9525401D01*
Y9818700D01*
X4151700D01*
Y10069500D01*
D02*
G37*
G36*
X7710076Y8728700D02*
X7682324D01*
X7655517Y8721517D01*
X7631483Y8707641D01*
X7611859Y8688017D01*
X7597983Y8663983D01*
X7590800Y8637176D01*
Y8609424D01*
X7597983Y8582617D01*
X7611859Y8558583D01*
X7631483Y8538959D01*
X7655517Y8525083D01*
X7682324Y8517900D01*
X7710076D01*
X7736883Y8525083D01*
X7760917Y8538959D01*
X7780541Y8558583D01*
X7794417Y8582617D01*
X7801600Y8609424D01*
Y8637176D01*
X7794417Y8663983D01*
X7780541Y8688017D01*
X7760917Y8707641D01*
X7736883Y8721517D01*
X7710076Y8728700D01*
D02*
G37*
G36*
X3894200Y8854428D02*
X3864716Y8851524D01*
X3836366Y8842924D01*
X3810238Y8828958D01*
X3787337Y8810163D01*
X3768542Y8787262D01*
X3754576Y8761134D01*
X3745976Y8732784D01*
X3743072Y8703300D01*
Y8653300D01*
X3745976Y8623817D01*
X3754576Y8595466D01*
X3768542Y8569338D01*
X3787337Y8546437D01*
X3810238Y8527642D01*
X3836366Y8513676D01*
X3864716Y8505076D01*
X3894200Y8502172D01*
X3923684Y8505076D01*
X3952034Y8513676D01*
X3978162Y8527642D01*
X4001063Y8546437D01*
X4019858Y8569338D01*
X4033824Y8595466D01*
X4042424Y8623817D01*
X4045328Y8653300D01*
Y8703300D01*
X4042424Y8732784D01*
X4033824Y8761134D01*
X4019858Y8787262D01*
X4001063Y8810163D01*
X3978162Y8828958D01*
X3952034Y8842924D01*
X3923684Y8851524D01*
X3894200Y8854428D01*
D02*
G37*
G36*
X7710076Y8474700D02*
X7682324D01*
X7655517Y8467517D01*
X7631483Y8453641D01*
X7611859Y8434017D01*
X7597983Y8409983D01*
X7590800Y8383176D01*
Y8355424D01*
X7597983Y8328617D01*
X7611859Y8304583D01*
X7631483Y8284959D01*
X7655517Y8271083D01*
X7657458Y8270563D01*
Y8229152D01*
X7649882Y8227122D01*
X7622518Y8211324D01*
X7600176Y8188982D01*
X7584378Y8161618D01*
X7580006Y8145300D01*
X7696200D01*
X7812394D01*
X7808022Y8161618D01*
X7792224Y8188982D01*
X7769882Y8211324D01*
X7742518Y8227122D01*
X7734942Y8229152D01*
Y8270563D01*
X7736883Y8271083D01*
X7760917Y8284959D01*
X7780541Y8304583D01*
X7794417Y8328617D01*
X7801600Y8355424D01*
Y8383176D01*
X7794417Y8409983D01*
X7780541Y8434017D01*
X7760917Y8453641D01*
X7736883Y8467517D01*
X7710076Y8474700D01*
D02*
G37*
G36*
X5932076D02*
X5904324D01*
X5877517Y8467517D01*
X5853483Y8453641D01*
X5833859Y8434017D01*
X5819983Y8409983D01*
X5812800Y8383176D01*
Y8355424D01*
X5819983Y8328617D01*
X5833859Y8304583D01*
X5853483Y8284959D01*
X5877517Y8271083D01*
X5879458Y8270563D01*
Y8229152D01*
X5871882Y8227122D01*
X5844518Y8211324D01*
X5822176Y8188982D01*
X5806378Y8161618D01*
X5802006Y8145300D01*
X5918200D01*
X6034394D01*
X6030022Y8161618D01*
X6014224Y8188982D01*
X5991882Y8211324D01*
X5964518Y8227122D01*
X5956942Y8229152D01*
Y8270563D01*
X5958883Y8271083D01*
X5982917Y8284959D01*
X6002541Y8304583D01*
X6016417Y8328617D01*
X6023600Y8355424D01*
Y8383176D01*
X6016417Y8409983D01*
X6002541Y8434017D01*
X5982917Y8453641D01*
X5958883Y8467517D01*
X5932076Y8474700D01*
D02*
G37*
G36*
X6034394Y8085300D02*
X5918200D01*
X5802006D01*
X5806378Y8068982D01*
X5822176Y8041618D01*
X5844518Y8019276D01*
X5871882Y8003478D01*
X5879458Y8001448D01*
Y7960037D01*
X5877517Y7959517D01*
X5853483Y7945641D01*
X5833859Y7926017D01*
X5819983Y7901983D01*
X5812800Y7875176D01*
Y7847424D01*
X5819983Y7820617D01*
X5833859Y7796583D01*
X5853483Y7776959D01*
X5877517Y7763083D01*
X5904324Y7755900D01*
X5932076D01*
X5958883Y7763083D01*
X5982917Y7776959D01*
X6002541Y7796583D01*
X6016417Y7820617D01*
X6023600Y7847424D01*
Y7875176D01*
X6016417Y7901983D01*
X6002541Y7926017D01*
X5982917Y7945641D01*
X5958883Y7959517D01*
X5956942Y7960037D01*
Y8001448D01*
X5964518Y8003478D01*
X5991882Y8019276D01*
X6014224Y8041618D01*
X6030022Y8068982D01*
X6034394Y8085300D01*
D02*
G37*
G36*
X4381500Y8179677D02*
X4354977Y8176185D01*
X4330262Y8165948D01*
X4309038Y8149662D01*
X4292752Y8128438D01*
X4282515Y8103723D01*
X4279023Y8077200D01*
Y8026400D01*
X4282515Y7999877D01*
X4292752Y7975162D01*
X4300703Y7964800D01*
X4287381Y7929525D01*
X4283189Y7924800D01*
X4203700D01*
X4152900Y7874000D01*
Y7721600D01*
X4203700Y7670800D01*
X4305300D01*
X4356100Y7721600D01*
Y7874000D01*
X4339619Y7890481D01*
X4350728Y7917196D01*
X4359902Y7926766D01*
X4381500Y7923923D01*
X4408023Y7927415D01*
X4416039Y7930735D01*
X4436211Y7895795D01*
X4436038Y7895662D01*
X4419752Y7874438D01*
X4409515Y7849723D01*
X4406023Y7823200D01*
Y7772400D01*
X4409515Y7745877D01*
X4419752Y7721162D01*
X4436038Y7699938D01*
X4457262Y7683652D01*
X4481977Y7673415D01*
X4508500Y7669923D01*
X4535023Y7673415D01*
X4559738Y7683652D01*
X4580962Y7699938D01*
X4597248Y7721162D01*
X4607485Y7745877D01*
X4610977Y7772400D01*
Y7823200D01*
X4607485Y7849723D01*
X4597248Y7874438D01*
X4580962Y7895662D01*
X4559738Y7911948D01*
X4535023Y7922185D01*
X4508500Y7925677D01*
X4481977Y7922185D01*
X4473961Y7918865D01*
X4453789Y7953805D01*
X4453962Y7953938D01*
X4470248Y7975162D01*
X4480485Y7999877D01*
X4483977Y8026400D01*
Y8077200D01*
X4480485Y8103723D01*
X4470248Y8128438D01*
X4453962Y8149662D01*
X4432738Y8165948D01*
X4408023Y8176185D01*
X4381500Y8179677D01*
D02*
G37*
G36*
X7801600Y7712700D02*
X7590800D01*
Y7501900D01*
X7801600D01*
Y7712700D01*
D02*
G37*
%LPD*%
D14*
X4792800Y11056800D02*
X5766256Y10083344D01*
Y9029244D02*
Y10083344D01*
X4792800Y11056800D02*
Y11543761D01*
X5026941Y11072141D02*
X5029200Y11074400D01*
X5346700Y10655300D02*
X5918200D01*
X5026941Y10975059D02*
Y11072141D01*
Y10975059D02*
X5346700Y10655300D01*
X4757653Y11578908D02*
X4792800Y11543761D01*
X4622800Y11582400D02*
X4626292Y11578908D01*
X4757653D01*
X4457700Y11049000D02*
X4953000Y10553700D01*
Y10337800D02*
Y10553700D01*
X5666257Y8875243D02*
X5918200Y8623300D01*
X5666257Y8875243D02*
Y9919317D01*
X4622800Y11074400D02*
Y11328400D01*
X5666257Y9919317D02*
Y10030944D01*
X4622800Y11074400D02*
X5666257Y10030944D01*
X5384800Y9637861D02*
X5666257Y9919317D01*
X5384800Y9055100D02*
Y9637861D01*
X4953000Y8623300D02*
X5384800Y9055100D01*
X4381500Y8623300D02*
X4953000D01*
X4064000Y8305800D02*
X4381500Y8623300D01*
X5766256Y9029244D02*
X5918200Y8877300D01*
X6960327Y7861300D02*
X7696200D01*
X6515827Y7416800D02*
X6960327Y7861300D01*
X5517950Y9537350D02*
X5518300Y9537700D01*
X5517950Y7766250D02*
X5867400Y7416800D01*
X6515827D01*
X5517950Y7766250D02*
Y9537350D01*
X4051300Y9525400D02*
Y9944100D01*
X3149200Y8623300D02*
X4051300Y9525400D01*
X3124200Y8623300D02*
X3149200D01*
D15*
X5168900Y9639300D02*
D03*
X4622800Y11328400D02*
D03*
D16*
X5168900Y9385300D02*
D03*
X4622800Y11582400D02*
D03*
D17*
X5918200Y12433300D02*
D03*
Y12179300D02*
D03*
Y11671300D02*
D03*
Y11417300D02*
D03*
Y11163300D02*
D03*
Y10909300D02*
D03*
Y10401300D02*
D03*
Y10147300D02*
D03*
Y9893300D02*
D03*
Y9639300D02*
D03*
Y9131300D02*
D03*
Y8877300D02*
D03*
Y8623300D02*
D03*
Y8369300D02*
D03*
Y7861300D02*
D03*
X7696200Y12433300D02*
D03*
Y12179300D02*
D03*
Y11671300D02*
D03*
Y11417300D02*
D03*
Y11163300D02*
D03*
Y10909300D02*
D03*
Y10401300D02*
D03*
Y10147300D02*
D03*
Y9893300D02*
D03*
Y9639300D02*
D03*
Y9131300D02*
D03*
Y8877300D02*
D03*
Y8623300D02*
D03*
Y8369300D02*
D03*
Y7861300D02*
D03*
X5918200Y7607300D02*
D03*
X7696200Y11925300D02*
D03*
Y8115300D02*
D03*
Y10655300D02*
D03*
Y9385300D02*
D03*
X5918200Y11925300D02*
D03*
Y10655300D02*
D03*
Y9385300D02*
D03*
Y8115300D02*
D03*
D18*
X7696200Y7607300D02*
D03*
D19*
X2794200Y9078300D02*
D03*
X2789000Y12033600D02*
D03*
X3889000Y11633600D02*
D03*
X3894200Y8678300D02*
D03*
D20*
X2794000Y9982200D02*
D03*
X5118100Y11480800D02*
D03*
X5105400Y12179300D02*
D03*
X5372100Y11480800D02*
D03*
X5359400Y12179300D02*
D03*
X4559300Y9944100D02*
D03*
X4305300D02*
D03*
D21*
X3119000Y11578600D02*
D03*
X3124200Y8623300D02*
D03*
D22*
X3429000Y12293600D02*
D03*
X3569000Y12538600D02*
D03*
X3434200Y9338300D02*
D03*
X3574200Y9583300D02*
D03*
D23*
X4508500Y7797800D02*
D03*
X4381500Y8051800D02*
D03*
D24*
X4254500Y7797800D02*
D03*
D25*
X5613400Y12179300D02*
D03*
X3048000Y9982200D02*
D03*
X5626100Y11480800D02*
D03*
X4051300Y9944100D02*
D03*
D26*
X4953000Y10337800D02*
D03*
X5029200Y11074400D02*
D03*
X4064000Y8305800D02*
D03*
X4457700Y11049000D02*
D03*
X5518300Y9537700D02*
D03*
%TF.MD5,77cb9618222ef865419b5527952f8af1*%
M02*
