%TF.GenerationSoftware,Altium Limited,Altium Designer,25.8.1 (18)*%
G04 Layer_Physical_Order=1*
G04 Layer_Color=255*
%FSLAX45Y45*%
%MOMM*%
%TF.SameCoordinates,EFCC0B50-9DCE-48EA-B2C5-4199F32896F4*%
%TF.FilePolarity,Positive*%
%TF.FileFunction,Copper,L1,Top,Signal*%
%TF.Part,Single*%
G01*
G75*
%TA.AperFunction,SMDPad,CuDef*%
%ADD10R,1.40000X1.20000*%
%ADD11R,1.20000X1.40000*%
%ADD12R,1.50000X1.30000*%
%ADD13R,1.30000X1.50000*%
%TA.AperFunction,Conductor*%
%ADD14C,0.60000*%
%TA.AperFunction,ComponentPad*%
%ADD15R,2.00000X1.50000*%
%ADD16O,2.00000X1.50000*%
%ADD17C,1.60000*%
%ADD18R,1.60000X1.60000*%
%ADD19O,2.50000X3.00000*%
%ADD20O,1.50000X2.00000*%
%ADD21O,3.00000X2.50000*%
%ADD22O,3.00000X2.00000*%
%ADD23O,1.52400X2.03200*%
G04:AMPARAMS|DCode=24|XSize=1.524mm|YSize=2.032mm|CornerRadius=0mm|HoleSize=0mm|Usage=FLASHONLY|Rotation=0.000|XOffset=0mm|YOffset=0mm|HoleType=Round|Shape=Octagon|*
%AMOCTAGOND24*
4,1,8,-0.38100,1.01600,0.38100,1.01600,0.76200,0.63500,0.76200,-0.63500,0.38100,-1.01600,-0.38100,-1.01600,-0.76200,-0.63500,-0.76200,0.63500,-0.38100,1.01600,0.0*
%
%ADD24OCTAGOND24*%

%ADD25R,1.50000X2.00000*%
%TA.AperFunction,ViaPad*%
%ADD26C,1.27000*%
G36*
X7934568Y7318132D02*
X2585332D01*
Y11985002D01*
X2625332Y11986967D01*
X2626387Y11976254D01*
X2635823Y11945152D01*
X2651144Y11916487D01*
X2671763Y11891363D01*
X2696887Y11870744D01*
X2725552Y11855423D01*
X2756654Y11845987D01*
X2789000Y11842802D01*
X2821346Y11845987D01*
X2852448Y11855423D01*
X2881113Y11870744D01*
X2906237Y11891363D01*
X2926856Y11916487D01*
X2942178Y11945152D01*
X2951613Y11976254D01*
X2954798Y12008600D01*
Y12058600D01*
X2951613Y12090946D01*
X2942178Y12122048D01*
X2926856Y12150713D01*
X2906237Y12175837D01*
X2881113Y12196456D01*
X2852448Y12211777D01*
X2821346Y12221213D01*
X2789000Y12224398D01*
X2756654Y12221213D01*
X2725552Y12211777D01*
X2696887Y12196456D01*
X2671763Y12175837D01*
X2651144Y12150713D01*
X2635823Y12122048D01*
X2626387Y12090946D01*
X2625332Y12080233D01*
X2585332Y12082198D01*
Y12635868D01*
X3371111D01*
X3391186Y12595867D01*
X3382604Y12575147D01*
X3377792Y12538600D01*
X3382604Y12502053D01*
X3393889Y12474808D01*
X3385506Y12452286D01*
X3372422Y12433942D01*
X3342453Y12429996D01*
X3308396Y12415890D01*
X3279151Y12393449D01*
X3256710Y12364204D01*
X3242604Y12330147D01*
X3237792Y12293600D01*
X3242604Y12257053D01*
X3256710Y12222996D01*
X3279151Y12193751D01*
X3308396Y12171310D01*
X3342453Y12157204D01*
X3379000Y12152392D01*
X3479000D01*
X3515547Y12157204D01*
X3549604Y12171310D01*
X3578849Y12193751D01*
X3601290Y12222996D01*
X3615396Y12257053D01*
X3620208Y12293600D01*
X3615396Y12330147D01*
X3604111Y12357392D01*
X3612494Y12379913D01*
X3625578Y12398258D01*
X3655547Y12402204D01*
X3689604Y12416310D01*
X3718849Y12438751D01*
X3741290Y12467996D01*
X3755396Y12502053D01*
X3760208Y12538600D01*
X3755396Y12575147D01*
X3746814Y12595867D01*
X3766889Y12635868D01*
X7934568D01*
Y7318132D01*
D02*
G37*
%LPC*%
G36*
X5728400Y12319300D02*
X5498400D01*
Y12279388D01*
X5462490Y12263885D01*
X5458400Y12264189D01*
X5441419Y12286319D01*
X5417396Y12304752D01*
X5389421Y12316340D01*
X5389400Y12316343D01*
Y12179300D01*
Y12042257D01*
X5389421Y12042260D01*
X5417396Y12053848D01*
X5441419Y12072281D01*
X5458400Y12094411D01*
X5462490Y12094715D01*
X5498400Y12079212D01*
Y12039300D01*
X5728400D01*
Y12319300D01*
D02*
G37*
G36*
X5105400Y12320292D02*
X5075379Y12316340D01*
X5047404Y12304752D01*
X5023381Y12286319D01*
X5004948Y12262296D01*
X4999815Y12249904D01*
X4901700D01*
Y12289300D01*
X4521700D01*
Y12069300D01*
X4551646D01*
Y11687757D01*
X4539804Y11682852D01*
X4515781Y11664419D01*
X4497348Y11640396D01*
X4485760Y11612421D01*
X4481808Y11582400D01*
X4485760Y11552379D01*
X4497348Y11524404D01*
X4515781Y11500381D01*
X4537911Y11483400D01*
X4538215Y11479310D01*
X4522712Y11443400D01*
X4482800D01*
Y11213400D01*
X4762800D01*
Y11443400D01*
X4722888D01*
X4707385Y11479310D01*
X4707689Y11483400D01*
X4729819Y11500381D01*
X4748252Y11524404D01*
X4759840Y11552379D01*
X4763792Y11582400D01*
X4759840Y11612421D01*
X4748252Y11640396D01*
X4729819Y11664419D01*
X4705796Y11682852D01*
X4692854Y11688213D01*
Y12069300D01*
X4901700D01*
Y12108696D01*
X4999815D01*
X5004948Y12096304D01*
X5023381Y12072281D01*
X5047404Y12053848D01*
X5075379Y12042260D01*
X5105400Y12038308D01*
X5135421Y12042260D01*
X5163396Y12053848D01*
X5187419Y12072281D01*
X5205852Y12096304D01*
X5210752Y12108133D01*
X5254048D01*
X5258948Y12096304D01*
X5277381Y12072281D01*
X5301404Y12053848D01*
X5329379Y12042260D01*
X5329400Y12042257D01*
Y12179300D01*
Y12316343D01*
X5329379Y12316340D01*
X5301404Y12304752D01*
X5277381Y12286319D01*
X5258948Y12262296D01*
X5254048Y12250467D01*
X5210752D01*
X5205852Y12262296D01*
X5187419Y12286319D01*
X5163396Y12304752D01*
X5135421Y12316340D01*
X5105400Y12320292D01*
D02*
G37*
G36*
X5741100Y11620800D02*
X5511100D01*
Y11580888D01*
X5475190Y11565385D01*
X5471100Y11565689D01*
X5454119Y11587819D01*
X5430096Y11606252D01*
X5402121Y11617840D01*
X5402100Y11617843D01*
Y11480800D01*
Y11343757D01*
X5402121Y11343760D01*
X5430096Y11355348D01*
X5454119Y11373781D01*
X5471100Y11395911D01*
X5475190Y11396215D01*
X5511100Y11380712D01*
Y11340800D01*
X5741100D01*
Y11620800D01*
D02*
G37*
G36*
X3889000Y11824398D02*
X3856654Y11821213D01*
X3825552Y11811777D01*
X3796887Y11796456D01*
X3771763Y11775837D01*
X3751144Y11750713D01*
X3735822Y11722048D01*
X3726387Y11690946D01*
X3723202Y11658600D01*
Y11608600D01*
X3726387Y11576254D01*
X3735822Y11545152D01*
X3751144Y11516488D01*
X3771763Y11491363D01*
X3796887Y11470744D01*
X3825552Y11455423D01*
X3856654Y11445988D01*
X3889000Y11442802D01*
X3921345Y11445988D01*
X3952448Y11455423D01*
X3981112Y11470744D01*
X4006237Y11491363D01*
X4026856Y11516488D01*
X4042177Y11545152D01*
X4051612Y11576254D01*
X4054798Y11608600D01*
Y11658600D01*
X4051612Y11690946D01*
X4042177Y11722048D01*
X4026856Y11750713D01*
X4006237Y11775837D01*
X3981112Y11796456D01*
X3952448Y11811777D01*
X3921345Y11821213D01*
X3889000Y11824398D01*
D02*
G37*
G36*
X5118100Y11621792D02*
X5088079Y11617840D01*
X5060104Y11606252D01*
X5036081Y11587819D01*
X5017648Y11563796D01*
X5006060Y11535821D01*
X5002108Y11505800D01*
Y11455800D01*
X5006060Y11425779D01*
X5017648Y11397804D01*
X5036081Y11373781D01*
X5060104Y11355348D01*
X5088079Y11343760D01*
X5118100Y11339808D01*
X5148121Y11343760D01*
X5176096Y11355348D01*
X5200119Y11373781D01*
X5218552Y11397804D01*
X5223452Y11409633D01*
X5266748D01*
X5271648Y11397804D01*
X5290081Y11373781D01*
X5314104Y11355348D01*
X5342079Y11343760D01*
X5342100Y11343757D01*
Y11480800D01*
Y11617843D01*
X5342079Y11617840D01*
X5314104Y11606252D01*
X5290081Y11587819D01*
X5271648Y11563796D01*
X5266748Y11551967D01*
X5223452D01*
X5218552Y11563796D01*
X5200119Y11587819D01*
X5176096Y11606252D01*
X5148121Y11617840D01*
X5118100Y11621792D01*
D02*
G37*
G36*
X3144000Y11744398D02*
X3094000D01*
X3061654Y11741212D01*
X3030552Y11731777D01*
X3001887Y11716456D01*
X2976763Y11695837D01*
X2956144Y11670712D01*
X2940822Y11642048D01*
X2931387Y11610946D01*
X2928202Y11578600D01*
X2931387Y11546254D01*
X2940822Y11515152D01*
X2956144Y11486487D01*
X2976763Y11461363D01*
X3001887Y11440744D01*
X3030552Y11425422D01*
X3048396Y11420009D01*
Y10939900D01*
X3050802Y10921627D01*
X3057855Y10904598D01*
X3069075Y10889976D01*
X3546375Y10412676D01*
X3560998Y10401455D01*
X3578026Y10394402D01*
X3596300Y10391996D01*
X3725400D01*
Y10362600D01*
X3945400D01*
Y10390046D01*
X4063300D01*
Y10353699D01*
X4293300D01*
Y10486457D01*
X4321199Y10514900D01*
X4586201D01*
Y10629900D01*
Y10744900D01*
X4572411D01*
X4557104Y10781855D01*
X4779045Y11003796D01*
X4953433D01*
X4965649Y10991579D01*
X4989251Y10977953D01*
X5015574Y10970900D01*
X5042826D01*
X5069149Y10977953D01*
X5092751Y10991579D01*
X5112021Y11010849D01*
X5125647Y11034451D01*
X5132700Y11060774D01*
Y11088026D01*
X5125647Y11114349D01*
X5112021Y11137951D01*
X5092751Y11157221D01*
X5069149Y11170847D01*
X5042826Y11177900D01*
X5015574D01*
X4989251Y11170847D01*
X4965649Y11157221D01*
X4953433Y11145004D01*
X4749800D01*
X4731526Y11142598D01*
X4714498Y11135545D01*
X4699876Y11124324D01*
X4599568Y11024017D01*
X4577818Y11030455D01*
X4561200Y11042217D01*
Y11062626D01*
X4554147Y11088949D01*
X4540521Y11112551D01*
X4521251Y11131821D01*
X4497649Y11145447D01*
X4471326Y11152500D01*
X4444074D01*
X4417751Y11145447D01*
X4394149Y11131821D01*
X4381933Y11119604D01*
X4165600D01*
X4147326Y11117198D01*
X4130298Y11110145D01*
X4115676Y11098924D01*
X3816015Y10799264D01*
X3804795Y10784642D01*
X3797742Y10767613D01*
X3795336Y10749340D01*
Y10742600D01*
X3725400D01*
Y10533204D01*
X3625545D01*
X3189604Y10969145D01*
Y11420009D01*
X3207448Y11425422D01*
X3236112Y11440744D01*
X3261237Y11461363D01*
X3281856Y11486487D01*
X3297177Y11515152D01*
X3306612Y11546254D01*
X3309798Y11578600D01*
X3306612Y11610946D01*
X3297177Y11642048D01*
X3281856Y11670712D01*
X3261237Y11695837D01*
X3236112Y11716456D01*
X3207448Y11731777D01*
X3176345Y11741212D01*
X3144000Y11744398D01*
D02*
G37*
G36*
X4661201Y10745504D02*
X4651201D01*
X4646612Y10744900D01*
X4646201D01*
Y10659900D01*
X4729830D01*
X4731805Y10674900D01*
X4729399Y10693174D01*
X4722346Y10710202D01*
X4721201Y10711694D01*
Y10744900D01*
X4665791D01*
X4661201Y10745504D01*
D02*
G37*
G36*
X4721201Y10599900D02*
X4646201D01*
Y10514900D01*
X4721201D01*
Y10599900D01*
D02*
G37*
G36*
X4559300Y10085092D02*
X4529279Y10081140D01*
X4501304Y10069552D01*
X4477281Y10051119D01*
X4458848Y10027096D01*
X4453948Y10015267D01*
X4410652D01*
X4405752Y10027096D01*
X4387319Y10051119D01*
X4363296Y10069552D01*
X4335321Y10081140D01*
X4305300Y10085092D01*
X4275279Y10081140D01*
X4247304Y10069552D01*
X4223281Y10051119D01*
X4206300Y10028989D01*
X4202210Y10028685D01*
X4166300Y10044188D01*
Y10084100D01*
X3936300D01*
Y9804100D01*
X4166300D01*
Y9844012D01*
X4202210Y9859515D01*
X4206300Y9859211D01*
X4223281Y9837081D01*
X4234696Y9828322D01*
Y8899501D01*
X4190300D01*
Y8689501D01*
Y8499499D01*
X4234696D01*
Y8373951D01*
X4237102Y8355678D01*
X4244155Y8338649D01*
X4255376Y8324027D01*
X4310896Y8268506D01*
Y8169491D01*
X4298625Y8160075D01*
X4284337Y8141454D01*
X3923800D01*
Y8199900D01*
X3923800D01*
X3935155Y8235196D01*
X3988233D01*
X4000449Y8222979D01*
X4024051Y8209353D01*
X4050374Y8202300D01*
X4077626D01*
X4103949Y8209353D01*
X4127551Y8222979D01*
X4146821Y8242249D01*
X4160447Y8265851D01*
X4167500Y8292174D01*
Y8319426D01*
X4160447Y8345749D01*
X4146821Y8369351D01*
X4127551Y8388621D01*
X4103949Y8402247D01*
X4077626Y8409300D01*
X4050374D01*
X4024051Y8402247D01*
X4000449Y8388621D01*
X3988233Y8376404D01*
X3733800D01*
X3715526Y8373998D01*
X3698498Y8366945D01*
X3683876Y8355724D01*
X3593876Y8265725D01*
X3582656Y8251102D01*
X3575602Y8234074D01*
X3573196Y8215800D01*
Y8199900D01*
X3543800D01*
Y8160504D01*
X3389300D01*
Y8199900D01*
X3187354D01*
Y8462449D01*
X3212648Y8470123D01*
X3241313Y8485444D01*
X3266437Y8506063D01*
X3287056Y8531187D01*
X3302377Y8559852D01*
X3311813Y8590954D01*
X3314998Y8623300D01*
X3311813Y8655646D01*
X3302377Y8686748D01*
X3287056Y8715413D01*
X3266437Y8740537D01*
X3241313Y8761156D01*
X3212648Y8776477D01*
X3181546Y8785913D01*
X3149200Y8789098D01*
X3099200D01*
X3066854Y8785913D01*
X3035752Y8776477D01*
X3007087Y8761156D01*
X2981963Y8740537D01*
X2961344Y8715413D01*
X2946023Y8686748D01*
X2936587Y8655646D01*
X2933402Y8623300D01*
X2936587Y8590954D01*
X2946023Y8559852D01*
X2961344Y8531187D01*
X2981963Y8506063D01*
X3007087Y8485444D01*
X3035752Y8470123D01*
X3046146Y8466969D01*
Y8199900D01*
X3009300D01*
Y7979900D01*
X3045596D01*
Y7666500D01*
X3023100D01*
Y7446500D01*
X3403100D01*
Y7492246D01*
X3521099D01*
Y7441500D01*
X3921101D01*
Y7671500D01*
X3921101D01*
X3923963Y7710314D01*
X3940845Y7727196D01*
X4138300D01*
Y7714300D01*
X4183896Y7668704D01*
Y7607300D01*
X4186302Y7589026D01*
X4193355Y7571998D01*
X4204576Y7557376D01*
X4268076Y7493876D01*
X4282698Y7482655D01*
X4299726Y7475602D01*
X4318000Y7473196D01*
X4622800D01*
X4641074Y7475602D01*
X4658102Y7482655D01*
X4672724Y7493876D01*
X4739500Y7560651D01*
X4779500Y7560163D01*
Y7531600D01*
X4999500D01*
Y7711600D01*
Y7911600D01*
X4960104D01*
Y8699500D01*
X4957698Y8717774D01*
X4950645Y8734802D01*
X4939424Y8749425D01*
X4862125Y8826725D01*
X4847502Y8837945D01*
X4830474Y8844998D01*
X4812200Y8847404D01*
X4770900D01*
Y8876800D01*
X4731504D01*
Y9000455D01*
X5021391Y9290342D01*
X5061881Y9303281D01*
X5085904Y9284848D01*
X5113879Y9273260D01*
X5143900Y9269308D01*
X5193900D01*
X5223921Y9273260D01*
X5251896Y9284848D01*
X5275919Y9303281D01*
X5294352Y9327304D01*
X5305940Y9355279D01*
X5309892Y9385300D01*
X5305940Y9415321D01*
X5294352Y9443296D01*
X5275919Y9467319D01*
X5253789Y9484300D01*
X5253485Y9488390D01*
X5268988Y9524300D01*
X5308900D01*
Y9754300D01*
X5028900D01*
Y9710454D01*
X4936000D01*
Y9740400D01*
X4716000D01*
Y9540400D01*
Y9360400D01*
X4839489D01*
X4854796Y9323445D01*
X4610976Y9079624D01*
X4599755Y9065002D01*
X4592702Y9047974D01*
X4590296Y9029700D01*
Y8876800D01*
X4550900D01*
Y8676800D01*
Y8496800D01*
X4590296D01*
Y8004845D01*
X4539972Y7954521D01*
X4520319Y7958798D01*
X4494709Y7996066D01*
X4498703Y8026400D01*
Y8077200D01*
X4494709Y8107534D01*
X4483000Y8135801D01*
X4464375Y8160075D01*
X4452104Y8169491D01*
Y8297751D01*
X4449698Y8316025D01*
X4442645Y8333053D01*
X4431424Y8347676D01*
X4375904Y8403196D01*
Y8499499D01*
X4420300D01*
Y8689501D01*
Y8899501D01*
X4375904D01*
Y9828322D01*
X4387319Y9837081D01*
X4405752Y9861104D01*
X4410652Y9872933D01*
X4453948D01*
X4458848Y9861104D01*
X4477281Y9837081D01*
X4501304Y9818648D01*
X4529279Y9807060D01*
X4559300Y9803108D01*
X4589321Y9807060D01*
X4617296Y9818648D01*
X4641319Y9837081D01*
X4659752Y9861104D01*
X4671340Y9889079D01*
X4675292Y9919100D01*
Y9969100D01*
X4671340Y9999121D01*
X4659752Y10027096D01*
X4641319Y10051119D01*
X4617296Y10069552D01*
X4589321Y10081140D01*
X4559300Y10085092D01*
D02*
G37*
G36*
X2794000Y10123192D02*
X2763979Y10119240D01*
X2736004Y10107652D01*
X2711981Y10089219D01*
X2693548Y10065196D01*
X2681960Y10037221D01*
X2678008Y10007200D01*
Y9957200D01*
X2681960Y9927179D01*
X2693548Y9899204D01*
X2711981Y9875181D01*
X2736004Y9856748D01*
X2763979Y9845160D01*
X2794000Y9841208D01*
X2824021Y9845160D01*
X2851996Y9856748D01*
X2876019Y9875181D01*
X2893000Y9897311D01*
X2897090Y9897615D01*
X2933000Y9882112D01*
Y9842200D01*
X3163000D01*
Y9911596D01*
X3303600D01*
Y9872200D01*
X3683600D01*
Y10092200D01*
X3303600D01*
Y10052804D01*
X3163000D01*
Y10122200D01*
X2933000D01*
Y10082288D01*
X2897090Y10066785D01*
X2893000Y10067089D01*
X2876019Y10089219D01*
X2851996Y10107652D01*
X2824021Y10119240D01*
X2794000Y10123192D01*
D02*
G37*
G36*
X4966626Y10441300D02*
X4939374D01*
X4913051Y10434247D01*
X4889449Y10420621D01*
X4870179Y10401351D01*
X4856553Y10377749D01*
X4849500Y10351426D01*
Y10324174D01*
X4856553Y10297851D01*
X4870179Y10274249D01*
X4889449Y10254979D01*
X4913051Y10241353D01*
X4939374Y10234300D01*
X4956651D01*
X5447696Y9743255D01*
Y9613467D01*
X5435479Y9601251D01*
X5421853Y9577649D01*
X5414800Y9551326D01*
Y9524074D01*
X5421853Y9497751D01*
X5435479Y9474149D01*
X5454749Y9454879D01*
X5478350Y9441253D01*
X5504674Y9434200D01*
X5531926D01*
X5558249Y9441253D01*
X5581850Y9454879D01*
X5601120Y9474149D01*
X5614746Y9497751D01*
X5621800Y9524074D01*
Y9551326D01*
X5614746Y9577649D01*
X5601120Y9601251D01*
X5588904Y9613467D01*
Y9772500D01*
X5586498Y9790774D01*
X5579445Y9807802D01*
X5568224Y9822425D01*
X5056500Y10334149D01*
Y10351426D01*
X5049447Y10377749D01*
X5035821Y10401351D01*
X5016551Y10420621D01*
X4992949Y10434247D01*
X4966626Y10441300D01*
D02*
G37*
G36*
X3624200Y9724508D02*
X3524200D01*
X3487653Y9719697D01*
X3453596Y9705590D01*
X3424351Y9683149D01*
X3401910Y9653904D01*
X3387804Y9619847D01*
X3382992Y9583300D01*
X3387804Y9546753D01*
X3399089Y9519508D01*
X3390706Y9496987D01*
X3377622Y9478642D01*
X3347653Y9474697D01*
X3313596Y9460590D01*
X3284351Y9438149D01*
X3261910Y9408904D01*
X3247804Y9374847D01*
X3242992Y9338300D01*
X3247804Y9301753D01*
X3261910Y9267696D01*
X3284351Y9238451D01*
X3313596Y9216010D01*
X3347653Y9201904D01*
X3384200Y9197092D01*
X3484200D01*
X3520747Y9201904D01*
X3554804Y9216010D01*
X3584049Y9238451D01*
X3606490Y9267696D01*
X3620597Y9301753D01*
X3625408Y9338300D01*
X3620597Y9374847D01*
X3609312Y9402092D01*
X3617694Y9424614D01*
X3630778Y9442958D01*
X3660747Y9446904D01*
X3694804Y9461010D01*
X3724049Y9483451D01*
X3746490Y9512696D01*
X3760596Y9546753D01*
X3765408Y9583300D01*
X3760596Y9619847D01*
X3746490Y9653904D01*
X3724049Y9683149D01*
X3694804Y9705590D01*
X3660747Y9719697D01*
X3624200Y9724508D01*
D02*
G37*
G36*
X2794200Y9269098D02*
X2761855Y9265913D01*
X2730752Y9256478D01*
X2702088Y9241156D01*
X2676963Y9220537D01*
X2656344Y9195413D01*
X2641023Y9166748D01*
X2631588Y9135646D01*
X2628402Y9103300D01*
Y9053300D01*
X2631588Y9020955D01*
X2641023Y8989852D01*
X2656344Y8961188D01*
X2676963Y8936063D01*
X2702088Y8915444D01*
X2730752Y8900123D01*
X2761855Y8890688D01*
X2794200Y8887502D01*
X2826546Y8890688D01*
X2857648Y8900123D01*
X2886313Y8915444D01*
X2911437Y8936063D01*
X2932056Y8961188D01*
X2947378Y8989852D01*
X2956813Y9020955D01*
X2959998Y9053300D01*
Y9103300D01*
X2956813Y9135646D01*
X2947378Y9166748D01*
X2932056Y9195413D01*
X2911437Y9220537D01*
X2886313Y9241156D01*
X2857648Y9256478D01*
X2826546Y9265913D01*
X2794200Y9269098D01*
D02*
G37*
G36*
X3894200Y8869098D02*
X3861854Y8865913D01*
X3830752Y8856478D01*
X3802087Y8841156D01*
X3776963Y8820537D01*
X3756344Y8795413D01*
X3741022Y8766748D01*
X3731587Y8735646D01*
X3728402Y8703300D01*
Y8653300D01*
X3731587Y8620955D01*
X3741022Y8589852D01*
X3756344Y8561188D01*
X3776963Y8536063D01*
X3802087Y8515444D01*
X3830752Y8500123D01*
X3861854Y8490688D01*
X3894200Y8487502D01*
X3926546Y8490688D01*
X3957648Y8500123D01*
X3986313Y8515444D01*
X4011437Y8536063D01*
X4032056Y8561188D01*
X4047377Y8589852D01*
X4056813Y8620955D01*
X4059998Y8653300D01*
Y8703300D01*
X4056813Y8735646D01*
X4047377Y8766748D01*
X4032056Y8795413D01*
X4011437Y8820537D01*
X3986313Y8841156D01*
X3957648Y8856478D01*
X3926546Y8865913D01*
X3894200Y8869098D01*
D02*
G37*
G36*
X5933998Y12553300D02*
X5902402D01*
X5871882Y12545122D01*
X5844518Y12529324D01*
X5822176Y12506982D01*
X5806378Y12479618D01*
X5798200Y12449098D01*
Y12417502D01*
X5806378Y12386982D01*
X5822176Y12359618D01*
X5844518Y12337276D01*
X5859816Y12328444D01*
X5862124Y12321303D01*
Y12291297D01*
X5859816Y12284156D01*
X5844518Y12275324D01*
X5822176Y12252982D01*
X5806378Y12225618D01*
X5798200Y12195098D01*
Y12163502D01*
X5806378Y12132982D01*
X5822176Y12105618D01*
X5844518Y12083276D01*
X5859816Y12074444D01*
X5862124Y12067303D01*
Y12037297D01*
X5859816Y12030156D01*
X5844518Y12021324D01*
X5822176Y11998982D01*
X5806378Y11971618D01*
X5798200Y11941098D01*
Y11909502D01*
X5806378Y11878982D01*
X5822176Y11851618D01*
X5844518Y11829276D01*
X5859816Y11820444D01*
X5862124Y11813303D01*
Y11783297D01*
X5859816Y11776156D01*
X5844518Y11767324D01*
X5822176Y11744982D01*
X5806378Y11717618D01*
X5798200Y11687098D01*
Y11655502D01*
X5806378Y11624982D01*
X5822176Y11597618D01*
X5844518Y11575276D01*
X5859816Y11566444D01*
X5862124Y11559303D01*
Y11529297D01*
X5859816Y11522156D01*
X5844518Y11513324D01*
X5822176Y11490982D01*
X5806378Y11463618D01*
X5798200Y11433098D01*
Y11401502D01*
X5806378Y11370982D01*
X5822176Y11343618D01*
X5844518Y11321276D01*
X5859816Y11312444D01*
X5862124Y11305303D01*
Y11275297D01*
X5859816Y11268156D01*
X5844518Y11259324D01*
X5822176Y11236982D01*
X5806378Y11209618D01*
X5798200Y11179098D01*
Y11147502D01*
X5806378Y11116982D01*
X5822176Y11089618D01*
X5844518Y11067276D01*
X5859816Y11058444D01*
X5862124Y11051303D01*
Y11021297D01*
X5859816Y11014156D01*
X5844518Y11005324D01*
X5822176Y10982982D01*
X5806378Y10955618D01*
X5798200Y10925098D01*
Y10893502D01*
X5806378Y10862982D01*
X5822176Y10835618D01*
X5844518Y10813276D01*
X5859816Y10804444D01*
X5862124Y10797303D01*
Y10767297D01*
X5859816Y10760156D01*
X5844518Y10751324D01*
X5822176Y10728982D01*
X5806378Y10701618D01*
X5798200Y10671098D01*
Y10639502D01*
X5806378Y10608982D01*
X5822176Y10581618D01*
X5844518Y10559276D01*
X5859816Y10550444D01*
X5862124Y10543303D01*
Y10513297D01*
X5859816Y10506156D01*
X5844518Y10497324D01*
X5822176Y10474982D01*
X5806378Y10447618D01*
X5798200Y10417098D01*
Y10385502D01*
X5806378Y10354982D01*
X5822176Y10327618D01*
X5844518Y10305276D01*
X5859816Y10296444D01*
X5862124Y10289303D01*
Y10259297D01*
X5859816Y10252156D01*
X5844518Y10243324D01*
X5822176Y10220982D01*
X5806378Y10193618D01*
X5798200Y10163098D01*
Y10131502D01*
X5806378Y10100982D01*
X5822176Y10073618D01*
X5844518Y10051276D01*
X5859816Y10042444D01*
X5862124Y10035303D01*
Y10005297D01*
X5859816Y9998156D01*
X5844518Y9989324D01*
X5822176Y9966982D01*
X5806378Y9939618D01*
X5798200Y9909098D01*
Y9877502D01*
X5806378Y9846982D01*
X5822176Y9819618D01*
X5844518Y9797276D01*
X5859816Y9788444D01*
X5862124Y9781303D01*
Y9751297D01*
X5859816Y9744156D01*
X5844518Y9735324D01*
X5822176Y9712982D01*
X5806378Y9685618D01*
X5798200Y9655098D01*
Y9623502D01*
X5806378Y9592982D01*
X5822176Y9565618D01*
X5844518Y9543276D01*
X5859816Y9534444D01*
X5862124Y9527303D01*
Y9497297D01*
X5859816Y9490156D01*
X5844518Y9481324D01*
X5822176Y9458982D01*
X5806378Y9431618D01*
X5798200Y9401098D01*
Y9369502D01*
X5806378Y9338982D01*
X5822176Y9311618D01*
X5844518Y9289276D01*
X5859816Y9280444D01*
X5862124Y9273303D01*
Y9243297D01*
X5859816Y9236156D01*
X5844518Y9227324D01*
X5822176Y9204982D01*
X5806378Y9177618D01*
X5798200Y9147098D01*
Y9115502D01*
X5806378Y9084982D01*
X5822176Y9057618D01*
X5844518Y9035276D01*
X5859816Y9026444D01*
X5862124Y9019303D01*
Y8989297D01*
X5859816Y8982156D01*
X5844518Y8973324D01*
X5822176Y8950982D01*
X5806378Y8923618D01*
X5798200Y8893098D01*
Y8861502D01*
X5806378Y8830982D01*
X5822176Y8803618D01*
X5844518Y8781276D01*
X5859816Y8772444D01*
X5862124Y8765303D01*
Y8735297D01*
X5859816Y8728156D01*
X5844518Y8719324D01*
X5822176Y8696982D01*
X5806378Y8669618D01*
X5798200Y8639098D01*
Y8607502D01*
X5806378Y8576982D01*
X5822176Y8549618D01*
X5844518Y8527276D01*
X5859816Y8518444D01*
X5862124Y8511303D01*
Y8481297D01*
X5859816Y8474156D01*
X5844518Y8465324D01*
X5822176Y8442982D01*
X5806378Y8415618D01*
X5798200Y8385098D01*
Y8353502D01*
X5806378Y8322982D01*
X5822176Y8295618D01*
X5844518Y8273276D01*
X5859816Y8264444D01*
X5862124Y8257303D01*
Y8227297D01*
X5859816Y8220156D01*
X5844518Y8211324D01*
X5822176Y8188982D01*
X5806378Y8161618D01*
X5798200Y8131098D01*
Y8099502D01*
X5806378Y8068982D01*
X5822176Y8041618D01*
X5844518Y8019276D01*
X5859816Y8010444D01*
X5862124Y8003303D01*
Y7973297D01*
X5859816Y7966156D01*
X5844518Y7957324D01*
X5822176Y7934982D01*
X5806378Y7907618D01*
X5798200Y7877098D01*
Y7845502D01*
X5806378Y7814982D01*
X5822176Y7787618D01*
X5844518Y7765276D01*
X5859816Y7756444D01*
X5862124Y7749303D01*
Y7719297D01*
X5859816Y7712156D01*
X5844518Y7703324D01*
X5822176Y7680982D01*
X5806378Y7653618D01*
X5802006Y7637300D01*
X5918200D01*
X6034394D01*
X6030022Y7653618D01*
X6014224Y7680982D01*
X5991882Y7703324D01*
X5976584Y7712156D01*
X5974276Y7719297D01*
Y7749303D01*
X5976584Y7756444D01*
X5991882Y7765276D01*
X6014224Y7787618D01*
X6030022Y7814982D01*
X6038200Y7845502D01*
Y7877098D01*
X6030022Y7907618D01*
X6014224Y7934982D01*
X5991882Y7957324D01*
X5976584Y7966156D01*
X5974276Y7973297D01*
Y8003303D01*
X5976584Y8010444D01*
X5991882Y8019276D01*
X6014224Y8041618D01*
X6030022Y8068982D01*
X6038200Y8099502D01*
Y8131098D01*
X6030022Y8161618D01*
X6014224Y8188982D01*
X5991882Y8211324D01*
X5976584Y8220156D01*
X5974276Y8227297D01*
Y8257303D01*
X5976584Y8264444D01*
X5991882Y8273276D01*
X6014224Y8295618D01*
X6030022Y8322982D01*
X6038200Y8353502D01*
Y8385098D01*
X6030022Y8415618D01*
X6014224Y8442982D01*
X5991882Y8465324D01*
X5976584Y8474156D01*
X5974276Y8481297D01*
Y8511303D01*
X5976584Y8518444D01*
X5991882Y8527276D01*
X6014224Y8549618D01*
X6030022Y8576982D01*
X6038200Y8607502D01*
Y8639098D01*
X6030022Y8669618D01*
X6014224Y8696982D01*
X5991882Y8719324D01*
X5976584Y8728156D01*
X5974276Y8735297D01*
Y8765303D01*
X5976584Y8772444D01*
X5991882Y8781276D01*
X6014224Y8803618D01*
X6030022Y8830982D01*
X6038200Y8861502D01*
Y8893098D01*
X6030022Y8923618D01*
X6014224Y8950982D01*
X5991882Y8973324D01*
X5976584Y8982156D01*
X5974276Y8989297D01*
Y9019303D01*
X5976584Y9026444D01*
X5991882Y9035276D01*
X6014224Y9057618D01*
X6030022Y9084982D01*
X6038200Y9115502D01*
Y9147098D01*
X6030022Y9177618D01*
X6014224Y9204982D01*
X5991882Y9227324D01*
X5976584Y9236156D01*
X5974276Y9243297D01*
Y9273303D01*
X5976584Y9280444D01*
X5991882Y9289276D01*
X6014224Y9311618D01*
X6030022Y9338982D01*
X6038200Y9369502D01*
Y9401098D01*
X6030022Y9431618D01*
X6014224Y9458982D01*
X5991882Y9481324D01*
X5976584Y9490156D01*
X5974276Y9497297D01*
Y9527303D01*
X5976584Y9534444D01*
X5991882Y9543276D01*
X6014224Y9565618D01*
X6030022Y9592982D01*
X6038200Y9623502D01*
Y9655098D01*
X6030022Y9685618D01*
X6014224Y9712982D01*
X5991882Y9735324D01*
X5976584Y9744156D01*
X5974276Y9751297D01*
Y9781303D01*
X5976584Y9788444D01*
X5991882Y9797276D01*
X6014224Y9819618D01*
X6030022Y9846982D01*
X6038200Y9877502D01*
Y9909098D01*
X6030022Y9939618D01*
X6014224Y9966982D01*
X5991882Y9989324D01*
X5976584Y9998156D01*
X5974276Y10005297D01*
Y10035303D01*
X5976584Y10042444D01*
X5991882Y10051276D01*
X6014224Y10073618D01*
X6030022Y10100982D01*
X6038200Y10131502D01*
Y10163098D01*
X6030022Y10193618D01*
X6014224Y10220982D01*
X5991882Y10243324D01*
X5976584Y10252156D01*
X5974276Y10259297D01*
Y10289303D01*
X5976584Y10296444D01*
X5991882Y10305276D01*
X6014224Y10327618D01*
X6030022Y10354982D01*
X6038200Y10385502D01*
Y10417098D01*
X6030022Y10447618D01*
X6014224Y10474982D01*
X5991882Y10497324D01*
X5976584Y10506156D01*
X5974276Y10513297D01*
Y10543303D01*
X5976584Y10550444D01*
X5991882Y10559276D01*
X6014224Y10581618D01*
X6030022Y10608982D01*
X6038200Y10639502D01*
Y10671098D01*
X6030022Y10701618D01*
X6014224Y10728982D01*
X5991882Y10751324D01*
X5976584Y10760156D01*
X5974276Y10767297D01*
Y10797303D01*
X5976584Y10804444D01*
X5991882Y10813276D01*
X6014224Y10835618D01*
X6030022Y10862982D01*
X6038200Y10893502D01*
Y10925098D01*
X6030022Y10955618D01*
X6014224Y10982982D01*
X5991882Y11005324D01*
X5976584Y11014156D01*
X5974276Y11021297D01*
Y11051303D01*
X5976584Y11058444D01*
X5991882Y11067276D01*
X6014224Y11089618D01*
X6030022Y11116982D01*
X6038200Y11147502D01*
Y11179098D01*
X6030022Y11209618D01*
X6014224Y11236982D01*
X5991882Y11259324D01*
X5976584Y11268156D01*
X5974276Y11275297D01*
Y11305303D01*
X5976584Y11312444D01*
X5991882Y11321276D01*
X6014224Y11343618D01*
X6030022Y11370982D01*
X6038200Y11401502D01*
Y11433098D01*
X6030022Y11463618D01*
X6014224Y11490982D01*
X5991882Y11513324D01*
X5976584Y11522156D01*
X5974276Y11529297D01*
Y11559303D01*
X5976584Y11566444D01*
X5991882Y11575276D01*
X6014224Y11597618D01*
X6030022Y11624982D01*
X6038200Y11655502D01*
Y11687098D01*
X6030022Y11717618D01*
X6014224Y11744982D01*
X5991882Y11767324D01*
X5976584Y11776156D01*
X5974276Y11783297D01*
Y11813303D01*
X5976584Y11820444D01*
X5991882Y11829276D01*
X6014224Y11851618D01*
X6030022Y11878982D01*
X6038200Y11909502D01*
Y11941098D01*
X6030022Y11971618D01*
X6014224Y11998982D01*
X5991882Y12021324D01*
X5976584Y12030156D01*
X5974276Y12037297D01*
Y12067303D01*
X5976584Y12074444D01*
X5991882Y12083276D01*
X6014224Y12105618D01*
X6030022Y12132982D01*
X6038200Y12163502D01*
Y12195098D01*
X6030022Y12225618D01*
X6014224Y12252982D01*
X5991882Y12275324D01*
X5976584Y12284156D01*
X5974276Y12291297D01*
Y12321303D01*
X5976584Y12328444D01*
X5991882Y12337276D01*
X6014224Y12359618D01*
X6030022Y12386982D01*
X6038200Y12417502D01*
Y12449098D01*
X6030022Y12479618D01*
X6014224Y12506982D01*
X5991882Y12529324D01*
X5964518Y12545122D01*
X5933998Y12553300D01*
D02*
G37*
G36*
X6034394Y7577300D02*
X5948200D01*
Y7491106D01*
X5964518Y7495478D01*
X5991882Y7511276D01*
X6014224Y7533618D01*
X6030022Y7560982D01*
X6034394Y7577300D01*
D02*
G37*
G36*
X5888200D02*
X5802006D01*
X5806378Y7560982D01*
X5822176Y7533618D01*
X5844518Y7511276D01*
X5871882Y7495478D01*
X5888200Y7491106D01*
Y7577300D01*
D02*
G37*
G36*
X7711998Y12553300D02*
X7680402D01*
X7649882Y12545122D01*
X7622518Y12529324D01*
X7600176Y12506982D01*
X7584378Y12479618D01*
X7576200Y12449098D01*
Y12417502D01*
X7584378Y12386982D01*
X7600176Y12359618D01*
X7622518Y12337276D01*
X7637816Y12328444D01*
X7640124Y12321303D01*
Y12291297D01*
X7637816Y12284156D01*
X7622518Y12275324D01*
X7600176Y12252982D01*
X7584378Y12225618D01*
X7576200Y12195098D01*
Y12163502D01*
X7584378Y12132982D01*
X7600176Y12105618D01*
X7622518Y12083276D01*
X7637816Y12074444D01*
X7640124Y12067303D01*
Y12037297D01*
X7637816Y12030156D01*
X7622518Y12021324D01*
X7600176Y11998982D01*
X7584378Y11971618D01*
X7576200Y11941098D01*
Y11909502D01*
X7584378Y11878982D01*
X7600176Y11851618D01*
X7622518Y11829276D01*
X7637816Y11820444D01*
X7640124Y11813303D01*
Y11783297D01*
X7637816Y11776156D01*
X7622518Y11767324D01*
X7600176Y11744982D01*
X7584378Y11717618D01*
X7576200Y11687098D01*
Y11655502D01*
X7584378Y11624982D01*
X7600176Y11597618D01*
X7622518Y11575276D01*
X7637816Y11566444D01*
X7640124Y11559303D01*
Y11529297D01*
X7637816Y11522156D01*
X7622518Y11513324D01*
X7600176Y11490982D01*
X7584378Y11463618D01*
X7576200Y11433098D01*
Y11401502D01*
X7584378Y11370982D01*
X7600176Y11343618D01*
X7622518Y11321276D01*
X7637816Y11312444D01*
X7640124Y11305303D01*
Y11275297D01*
X7637816Y11268156D01*
X7622518Y11259324D01*
X7600176Y11236982D01*
X7584378Y11209618D01*
X7576200Y11179098D01*
Y11147502D01*
X7584378Y11116982D01*
X7600176Y11089618D01*
X7622518Y11067276D01*
X7637816Y11058444D01*
X7640124Y11051303D01*
Y11021297D01*
X7637816Y11014156D01*
X7622518Y11005324D01*
X7600176Y10982982D01*
X7584378Y10955618D01*
X7576200Y10925098D01*
Y10893502D01*
X7584378Y10862982D01*
X7600176Y10835618D01*
X7622518Y10813276D01*
X7637816Y10804444D01*
X7640124Y10797303D01*
Y10767297D01*
X7637816Y10760156D01*
X7622518Y10751324D01*
X7600176Y10728982D01*
X7584378Y10701618D01*
X7576200Y10671098D01*
Y10639502D01*
X7584378Y10608982D01*
X7600176Y10581618D01*
X7622518Y10559276D01*
X7637816Y10550444D01*
X7640124Y10543303D01*
Y10513297D01*
X7637816Y10506156D01*
X7622518Y10497324D01*
X7600176Y10474982D01*
X7584378Y10447618D01*
X7576200Y10417098D01*
Y10385502D01*
X7584378Y10354982D01*
X7600176Y10327618D01*
X7622518Y10305276D01*
X7637816Y10296444D01*
X7640124Y10289303D01*
Y10259297D01*
X7637816Y10252156D01*
X7622518Y10243324D01*
X7600176Y10220982D01*
X7584378Y10193618D01*
X7576200Y10163098D01*
Y10131502D01*
X7584378Y10100982D01*
X7600176Y10073618D01*
X7622518Y10051276D01*
X7637816Y10042444D01*
X7640124Y10035303D01*
Y10005297D01*
X7637816Y9998156D01*
X7622518Y9989324D01*
X7600176Y9966982D01*
X7584378Y9939618D01*
X7576200Y9909098D01*
Y9877502D01*
X7584378Y9846982D01*
X7600176Y9819618D01*
X7622518Y9797276D01*
X7637816Y9788444D01*
X7640124Y9781303D01*
Y9751297D01*
X7637816Y9744156D01*
X7622518Y9735324D01*
X7600176Y9712982D01*
X7584378Y9685618D01*
X7576200Y9655098D01*
Y9623502D01*
X7584378Y9592982D01*
X7600176Y9565618D01*
X7622518Y9543276D01*
X7637816Y9534444D01*
X7640124Y9527303D01*
Y9497297D01*
X7637816Y9490156D01*
X7622518Y9481324D01*
X7600176Y9458982D01*
X7584378Y9431618D01*
X7576200Y9401098D01*
Y9369502D01*
X7584378Y9338982D01*
X7600176Y9311618D01*
X7622518Y9289276D01*
X7637816Y9280444D01*
X7640124Y9273303D01*
Y9243297D01*
X7637816Y9236156D01*
X7622518Y9227324D01*
X7600176Y9204982D01*
X7584378Y9177618D01*
X7576200Y9147098D01*
Y9115502D01*
X7584378Y9084982D01*
X7600176Y9057618D01*
X7622518Y9035276D01*
X7637816Y9026444D01*
X7640124Y9019303D01*
Y8989297D01*
X7637816Y8982156D01*
X7622518Y8973324D01*
X7600176Y8950982D01*
X7584378Y8923618D01*
X7576200Y8893098D01*
Y8861502D01*
X7584378Y8830982D01*
X7600176Y8803618D01*
X7622518Y8781276D01*
X7637816Y8772444D01*
X7640124Y8765303D01*
Y8735297D01*
X7637816Y8728156D01*
X7622518Y8719324D01*
X7600176Y8696982D01*
X7584378Y8669618D01*
X7576200Y8639098D01*
Y8607502D01*
X7584378Y8576982D01*
X7600176Y8549618D01*
X7622518Y8527276D01*
X7637816Y8518444D01*
X7640124Y8511303D01*
Y8481297D01*
X7637816Y8474156D01*
X7622518Y8465324D01*
X7600176Y8442982D01*
X7584378Y8415618D01*
X7576200Y8385098D01*
Y8353502D01*
X7584378Y8322982D01*
X7600176Y8295618D01*
X7622518Y8273276D01*
X7637816Y8264444D01*
X7640124Y8257303D01*
Y8227297D01*
X7637816Y8220156D01*
X7622518Y8211324D01*
X7600176Y8188982D01*
X7584378Y8161618D01*
X7576200Y8131098D01*
Y8099502D01*
X7584378Y8068982D01*
X7600176Y8041618D01*
X7622518Y8019276D01*
X7637816Y8010444D01*
X7640124Y8003303D01*
Y7973297D01*
X7637816Y7966156D01*
X7622518Y7957324D01*
X7600176Y7934982D01*
X7584378Y7907618D01*
X7576200Y7877098D01*
Y7845502D01*
X7584378Y7814982D01*
X7600176Y7787618D01*
X7620495Y7767300D01*
X7619838Y7758120D01*
X7608296Y7727300D01*
X7576200D01*
Y7487300D01*
X7816200D01*
Y7727300D01*
X7784104D01*
X7772562Y7758120D01*
X7771905Y7767300D01*
X7792224Y7787618D01*
X7808022Y7814982D01*
X7816200Y7845502D01*
Y7877098D01*
X7808022Y7907618D01*
X7792224Y7934982D01*
X7769882Y7957324D01*
X7754584Y7966156D01*
X7752276Y7973297D01*
Y8003303D01*
X7754584Y8010444D01*
X7769882Y8019276D01*
X7792224Y8041618D01*
X7808022Y8068982D01*
X7816200Y8099502D01*
Y8131098D01*
X7808022Y8161618D01*
X7792224Y8188982D01*
X7769882Y8211324D01*
X7754584Y8220156D01*
X7752276Y8227297D01*
Y8257303D01*
X7754584Y8264444D01*
X7769882Y8273276D01*
X7792224Y8295618D01*
X7808022Y8322982D01*
X7816200Y8353502D01*
Y8385098D01*
X7808022Y8415618D01*
X7792224Y8442982D01*
X7769882Y8465324D01*
X7754584Y8474156D01*
X7752276Y8481297D01*
Y8511303D01*
X7754584Y8518444D01*
X7769882Y8527276D01*
X7792224Y8549618D01*
X7808022Y8576982D01*
X7816200Y8607502D01*
Y8639098D01*
X7808022Y8669618D01*
X7792224Y8696982D01*
X7769882Y8719324D01*
X7754584Y8728156D01*
X7752276Y8735297D01*
Y8765303D01*
X7754584Y8772444D01*
X7769882Y8781276D01*
X7792224Y8803618D01*
X7808022Y8830982D01*
X7816200Y8861502D01*
Y8893098D01*
X7808022Y8923618D01*
X7792224Y8950982D01*
X7769882Y8973324D01*
X7754584Y8982156D01*
X7752276Y8989297D01*
Y9019303D01*
X7754584Y9026444D01*
X7769882Y9035276D01*
X7792224Y9057618D01*
X7808022Y9084982D01*
X7816200Y9115502D01*
Y9147098D01*
X7808022Y9177618D01*
X7792224Y9204982D01*
X7769882Y9227324D01*
X7754584Y9236156D01*
X7752276Y9243297D01*
Y9273303D01*
X7754584Y9280444D01*
X7769882Y9289276D01*
X7792224Y9311618D01*
X7808022Y9338982D01*
X7816200Y9369502D01*
Y9401098D01*
X7808022Y9431618D01*
X7792224Y9458982D01*
X7769882Y9481324D01*
X7754584Y9490156D01*
X7752276Y9497297D01*
Y9527303D01*
X7754584Y9534444D01*
X7769882Y9543276D01*
X7792224Y9565618D01*
X7808022Y9592982D01*
X7816200Y9623502D01*
Y9655098D01*
X7808022Y9685618D01*
X7792224Y9712982D01*
X7769882Y9735324D01*
X7754584Y9744156D01*
X7752276Y9751297D01*
Y9781303D01*
X7754584Y9788444D01*
X7769882Y9797276D01*
X7792224Y9819618D01*
X7808022Y9846982D01*
X7816200Y9877502D01*
Y9909098D01*
X7808022Y9939618D01*
X7792224Y9966982D01*
X7769882Y9989324D01*
X7754584Y9998156D01*
X7752276Y10005297D01*
Y10035303D01*
X7754584Y10042444D01*
X7769882Y10051276D01*
X7792224Y10073618D01*
X7808022Y10100982D01*
X7816200Y10131502D01*
Y10163098D01*
X7808022Y10193618D01*
X7792224Y10220982D01*
X7769882Y10243324D01*
X7754584Y10252156D01*
X7752276Y10259297D01*
Y10289303D01*
X7754584Y10296444D01*
X7769882Y10305276D01*
X7792224Y10327618D01*
X7808022Y10354982D01*
X7816200Y10385502D01*
Y10417098D01*
X7808022Y10447618D01*
X7792224Y10474982D01*
X7769882Y10497324D01*
X7754584Y10506156D01*
X7752276Y10513297D01*
Y10543303D01*
X7754584Y10550444D01*
X7769882Y10559276D01*
X7792224Y10581618D01*
X7808022Y10608982D01*
X7816200Y10639502D01*
Y10671098D01*
X7808022Y10701618D01*
X7792224Y10728982D01*
X7769882Y10751324D01*
X7754584Y10760156D01*
X7752276Y10767297D01*
Y10797303D01*
X7754584Y10804444D01*
X7769882Y10813276D01*
X7792224Y10835618D01*
X7808022Y10862982D01*
X7816200Y10893502D01*
Y10925098D01*
X7808022Y10955618D01*
X7792224Y10982982D01*
X7769882Y11005324D01*
X7754584Y11014156D01*
X7752276Y11021297D01*
Y11051303D01*
X7754584Y11058444D01*
X7769882Y11067276D01*
X7792224Y11089618D01*
X7808022Y11116982D01*
X7816200Y11147502D01*
Y11179098D01*
X7808022Y11209618D01*
X7792224Y11236982D01*
X7769882Y11259324D01*
X7754584Y11268156D01*
X7752276Y11275297D01*
Y11305303D01*
X7754584Y11312444D01*
X7769882Y11321276D01*
X7792224Y11343618D01*
X7808022Y11370982D01*
X7816200Y11401502D01*
Y11433098D01*
X7808022Y11463618D01*
X7792224Y11490982D01*
X7769882Y11513324D01*
X7754584Y11522156D01*
X7752276Y11529297D01*
Y11559303D01*
X7754584Y11566444D01*
X7769882Y11575276D01*
X7792224Y11597618D01*
X7808022Y11624982D01*
X7816200Y11655502D01*
Y11687098D01*
X7808022Y11717618D01*
X7792224Y11744982D01*
X7769882Y11767324D01*
X7754584Y11776156D01*
X7752276Y11783297D01*
Y11813303D01*
X7754584Y11820444D01*
X7769882Y11829276D01*
X7792224Y11851618D01*
X7808022Y11878982D01*
X7816200Y11909502D01*
Y11941098D01*
X7808022Y11971618D01*
X7792224Y11998982D01*
X7769882Y12021324D01*
X7754584Y12030156D01*
X7752276Y12037297D01*
Y12067303D01*
X7754584Y12074444D01*
X7769882Y12083276D01*
X7792224Y12105618D01*
X7808022Y12132982D01*
X7816200Y12163502D01*
Y12195098D01*
X7808022Y12225618D01*
X7792224Y12252982D01*
X7769882Y12275324D01*
X7754584Y12284156D01*
X7752276Y12291297D01*
Y12321303D01*
X7754584Y12328444D01*
X7769882Y12337276D01*
X7792224Y12359618D01*
X7808022Y12386982D01*
X7816200Y12417502D01*
Y12449098D01*
X7808022Y12479618D01*
X7792224Y12506982D01*
X7769882Y12529324D01*
X7742518Y12545122D01*
X7711998Y12553300D01*
D02*
G37*
%LPD*%
D10*
X4660900Y8776800D02*
D03*
X4889500Y7811600D02*
D03*
X3835400Y10642600D02*
D03*
Y10462600D02*
D03*
X4889500Y7631600D02*
D03*
X4660900Y8596800D02*
D03*
X4826000Y9460400D02*
D03*
Y9640400D02*
D03*
D11*
X4801700Y12179300D02*
D03*
X3289300Y8089900D02*
D03*
X3643800D02*
D03*
X4621700Y12179300D02*
D03*
X3123100Y7556500D02*
D03*
X3303100D02*
D03*
X3109300Y8089900D02*
D03*
X3823800D02*
D03*
X3583600Y9982200D02*
D03*
X3403600D02*
D03*
D12*
X4178300Y10648701D02*
D03*
Y10458699D02*
D03*
X4305300Y8604499D02*
D03*
Y8794501D02*
D03*
D13*
X4426199Y10629900D02*
D03*
X4616201D02*
D03*
X3816101Y7556500D02*
D03*
X3626099D02*
D03*
D14*
X3119000Y10939900D02*
Y11578600D01*
Y10939900D02*
X3596300Y10462600D01*
X4953000Y10337800D02*
X5518300Y9772500D01*
Y9537700D02*
Y9772500D01*
X3816101Y7556500D02*
Y7702301D01*
X3911600Y7797800D02*
X4254500D01*
X3816101Y7702301D02*
X3911600Y7797800D01*
X4254500Y7607300D02*
Y7768760D01*
Y7797800D01*
X4318000Y7543800D02*
X4622800D01*
X4254500Y7607300D02*
X4318000Y7543800D01*
X4622800D02*
X4710600Y7631600D01*
X4889500D01*
X4660900Y9029700D02*
X5016500Y9385300D01*
X4660900Y8776800D02*
Y9029700D01*
X4685400Y8776800D02*
X4812200D01*
X4889500Y7811600D02*
Y8699500D01*
X4812200Y8776800D02*
X4889500Y8699500D01*
X4749800Y11074400D02*
X5029200D01*
X4435153Y10759753D02*
X4749800Y11074400D01*
X4435153Y10648854D02*
Y10759753D01*
X4425599Y10639301D02*
X4435153Y10648854D01*
X4187701Y10639301D02*
X4425599D01*
X5016500Y9385300D02*
X5168900D01*
X4801700Y12179300D02*
X5105400D01*
X4178300Y10648701D02*
X4187701Y10639301D01*
X3643800Y8089900D02*
Y8215800D01*
X3733800Y8305800D01*
X4064000D01*
X3289300Y8089900D02*
X3643800D01*
X5359400Y12179300D02*
X5365750Y12172950D01*
Y11487150D02*
X5372100Y11480800D01*
X5354879Y11463579D02*
X5372100Y11480800D01*
X4651201Y10674900D02*
X4661201D01*
X4616201Y10629900D02*
Y10639900D01*
X4651201Y10674900D01*
X4621700Y12179300D02*
X4622250Y12178750D01*
Y11582950D02*
Y12178750D01*
Y11582950D02*
X4622800Y11582400D01*
X3865940Y10749340D02*
X4165600Y11049000D01*
X3865940Y10672600D02*
Y10749340D01*
X3835939Y10642600D02*
X3865940Y10672600D01*
X3835400Y10642600D02*
X3835939D01*
X4165600Y11049000D02*
X4457700D01*
X4176350Y10460649D02*
X4178300Y10458699D01*
X3837351Y10460649D02*
X4176350D01*
X3835400Y10462600D02*
X3837351Y10460649D01*
X3596300Y10462600D02*
X3835400D01*
X3842850Y8070850D02*
X4362450D01*
X3823800Y8089900D02*
X3842850Y8070850D01*
X4381500Y8051800D02*
Y8297751D01*
X4362450Y8070850D02*
X4381500Y8051800D01*
X5168350Y9639850D02*
X5168900Y9639300D01*
X4826550Y9639850D02*
X5168350D01*
X4826000Y9640400D02*
X4826550Y9639850D01*
X3048000Y9982200D02*
X3403600D01*
X3116750Y8615850D02*
X3124200Y8623300D01*
X3116750Y8097350D02*
Y8615850D01*
X3109300Y8089900D02*
X3116750Y8097350D01*
X3309450Y7550150D02*
X3322150Y7562850D01*
X3619749D01*
X3116200Y7563400D02*
X3123100Y7556500D01*
X3116200Y7563400D02*
Y8083000D01*
X3109300Y8089900D02*
X3116200Y8083000D01*
X3619749Y7562850D02*
X3626099Y7556500D01*
X4305300Y8373951D02*
Y8604499D01*
Y8373951D02*
X4381500Y8297751D01*
X4508500Y7797800D02*
Y7823200D01*
X4660900Y7975600D01*
Y8596800D01*
X4305300Y8794501D02*
Y9944100D01*
D15*
X5168900Y9639300D02*
D03*
X4622800Y11328400D02*
D03*
D16*
X5168900Y9385300D02*
D03*
X4622800Y11582400D02*
D03*
D17*
X5918200Y12433300D02*
D03*
Y12179300D02*
D03*
Y11671300D02*
D03*
Y11417300D02*
D03*
Y11163300D02*
D03*
Y10909300D02*
D03*
Y10401300D02*
D03*
Y10147300D02*
D03*
Y9893300D02*
D03*
Y9639300D02*
D03*
Y9131300D02*
D03*
Y8877300D02*
D03*
Y8623300D02*
D03*
Y8369300D02*
D03*
Y7861300D02*
D03*
X7696200Y12433300D02*
D03*
Y12179300D02*
D03*
Y11671300D02*
D03*
Y11417300D02*
D03*
Y11163300D02*
D03*
Y10909300D02*
D03*
Y10401300D02*
D03*
Y10147300D02*
D03*
Y9893300D02*
D03*
Y9639300D02*
D03*
Y9131300D02*
D03*
Y8877300D02*
D03*
Y8623300D02*
D03*
Y8369300D02*
D03*
Y7861300D02*
D03*
X5918200Y7607300D02*
D03*
X7696200Y11925300D02*
D03*
Y8115300D02*
D03*
Y10655300D02*
D03*
Y9385300D02*
D03*
X5918200Y11925300D02*
D03*
Y10655300D02*
D03*
Y9385300D02*
D03*
Y8115300D02*
D03*
D18*
X7696200Y7607300D02*
D03*
D19*
X2794200Y9078300D02*
D03*
X2789000Y12033600D02*
D03*
X3889000Y11633600D02*
D03*
X3894200Y8678300D02*
D03*
D20*
X2794000Y9982200D02*
D03*
X5118100Y11480800D02*
D03*
X5105400Y12179300D02*
D03*
X5372100Y11480800D02*
D03*
X5359400Y12179300D02*
D03*
X4559300Y9944100D02*
D03*
X4305300D02*
D03*
D21*
X3119000Y11578600D02*
D03*
X3124200Y8623300D02*
D03*
D22*
X3429000Y12293600D02*
D03*
X3569000Y12538600D02*
D03*
X3434200Y9338300D02*
D03*
X3574200Y9583300D02*
D03*
D23*
X4508500Y7797800D02*
D03*
X4381500Y8051800D02*
D03*
D24*
X4254500Y7797800D02*
D03*
D25*
X5613400Y12179300D02*
D03*
X3048000Y9982200D02*
D03*
X5626100Y11480800D02*
D03*
X4051300Y9944100D02*
D03*
D26*
X4953000Y10337800D02*
D03*
X5029200Y11074400D02*
D03*
X4064000Y8305800D02*
D03*
X4457700Y11049000D02*
D03*
X5518300Y9537700D02*
D03*
%TF.MD5,43fbb58af8a496c26381ea2f48c81f7e*%
M02*
